G04*
G04 #@! TF.GenerationSoftware,Altium Limited,Altium Designer,18.1.9 (240)*
G04*
G04 Layer_Color=8388736*
%FSLAX25Y25*%
%MOIN*%
G70*
G01*
G75*
%ADD10C,0.07800*%
%ADD11C,0.02300*%
%ADD12C,0.15800*%
%ADD13O,0.07800X0.13300*%
%ADD14C,0.10800*%
%ADD15R,0.15800X0.15800*%
%ADD16O,0.13300X0.07800*%
%ADD17C,0.13300*%
%ADD18C,0.05800*%
D10*
X542600Y554800D02*
Y570500D01*
X552600Y554800D02*
Y570500D01*
X562600Y554800D02*
Y570500D01*
X1122800Y594600D02*
Y620300D01*
Y544700D02*
Y570400D01*
X1112800Y594600D02*
Y620300D01*
Y544700D02*
Y570400D01*
X1102800Y594600D02*
Y620300D01*
Y544700D02*
Y570400D01*
X1092800Y594600D02*
Y620300D01*
Y544700D02*
Y570400D01*
X1082800Y594600D02*
Y620300D01*
Y544700D02*
Y570400D01*
X1072800Y594600D02*
Y620300D01*
Y544700D02*
Y570400D01*
X1062800Y594600D02*
Y620300D01*
Y544700D02*
Y570400D01*
X1052800Y594600D02*
Y620300D01*
Y544700D02*
Y570400D01*
X1042800Y594600D02*
Y620300D01*
Y544700D02*
Y570400D01*
X1032800Y594600D02*
Y620300D01*
Y544700D02*
Y570400D01*
X1022800Y594600D02*
Y620300D01*
Y544700D02*
Y570400D01*
X1012800Y594600D02*
Y620300D01*
Y544700D02*
Y570400D01*
X1002800Y594600D02*
Y620300D01*
Y544700D02*
Y570400D01*
X992800Y594600D02*
Y620300D01*
Y544700D02*
Y570400D01*
X982800Y594600D02*
Y620300D01*
Y544700D02*
Y570400D01*
X972800Y594600D02*
Y620300D01*
Y544700D02*
Y570400D01*
X962800Y594600D02*
Y620300D01*
Y544700D02*
Y570400D01*
X952800Y594600D02*
Y620300D01*
Y544700D02*
Y570400D01*
X942800Y594600D02*
Y620300D01*
Y544700D02*
Y570400D01*
X932800Y594600D02*
Y620300D01*
Y544700D02*
Y570400D01*
X922800Y544700D02*
Y570400D01*
Y594600D02*
Y620300D01*
X132600Y594700D02*
Y610400D01*
X122600Y594700D02*
Y610400D01*
D11*
X1038361Y523400D02*
G03*
X1038361Y523400I-6161J0D01*
G01*
D12*
X552500Y350500D02*
D03*
Y318500D02*
D03*
X1002200Y200500D02*
D03*
Y168500D02*
D03*
X908300Y200500D02*
D03*
Y168500D02*
D03*
X833300Y200500D02*
D03*
Y168500D02*
D03*
X758300Y200500D02*
D03*
Y168500D02*
D03*
X683300Y200500D02*
D03*
Y168500D02*
D03*
X608300Y200500D02*
D03*
Y168500D02*
D03*
X533300Y200500D02*
D03*
Y168500D02*
D03*
X458300Y200500D02*
D03*
Y168500D02*
D03*
X383300Y200500D02*
D03*
Y168500D02*
D03*
X308300Y200500D02*
D03*
Y168500D02*
D03*
X139800Y200500D02*
D03*
Y168500D02*
D03*
X1096200Y275500D02*
D03*
Y243500D02*
D03*
X1021200Y275500D02*
D03*
Y243500D02*
D03*
X946200Y275500D02*
D03*
Y243500D02*
D03*
X871200Y275500D02*
D03*
Y243500D02*
D03*
X796200Y275500D02*
D03*
Y243500D02*
D03*
X721200Y275500D02*
D03*
Y243500D02*
D03*
X646200Y275500D02*
D03*
Y243500D02*
D03*
X571200Y275500D02*
D03*
Y243500D02*
D03*
X496200Y275500D02*
D03*
Y243500D02*
D03*
X421200Y275500D02*
D03*
Y243500D02*
D03*
X346200Y275500D02*
D03*
Y243500D02*
D03*
X271200Y275500D02*
D03*
Y243500D02*
D03*
X196200Y275500D02*
D03*
Y243500D02*
D03*
X1021400Y350500D02*
D03*
Y318500D02*
D03*
X927500Y350500D02*
D03*
Y318500D02*
D03*
X852500Y350500D02*
D03*
Y318500D02*
D03*
X777500Y350500D02*
D03*
Y318500D02*
D03*
X702500Y350500D02*
D03*
Y318500D02*
D03*
X627500Y350500D02*
D03*
Y318500D02*
D03*
X477500Y350500D02*
D03*
Y318500D02*
D03*
X402500Y350500D02*
D03*
Y318500D02*
D03*
X327500Y350500D02*
D03*
Y318500D02*
D03*
X252500Y350500D02*
D03*
Y318500D02*
D03*
X177500Y350500D02*
D03*
Y318500D02*
D03*
X570800Y125500D02*
D03*
Y93500D02*
D03*
X1041100Y425500D02*
D03*
Y393500D02*
D03*
X966100Y425500D02*
D03*
Y393500D02*
D03*
X891100Y425500D02*
D03*
Y393500D02*
D03*
X816100Y425500D02*
D03*
Y393500D02*
D03*
X741100Y425500D02*
D03*
Y393500D02*
D03*
X666100Y425500D02*
D03*
Y393500D02*
D03*
X591100Y425500D02*
D03*
Y393500D02*
D03*
X516100Y425500D02*
D03*
Y393500D02*
D03*
X441100Y425500D02*
D03*
Y393500D02*
D03*
X366100Y425500D02*
D03*
Y393500D02*
D03*
X291100Y425500D02*
D03*
Y393500D02*
D03*
X216100Y425500D02*
D03*
Y393500D02*
D03*
X233700Y200500D02*
D03*
Y168500D02*
D03*
X121200Y275500D02*
D03*
Y243500D02*
D03*
X102500Y350500D02*
D03*
Y318500D02*
D03*
X141100Y425500D02*
D03*
Y393500D02*
D03*
X91700Y498500D02*
D03*
Y518500D02*
D03*
D13*
X1122800Y597500D02*
D03*
Y567500D02*
D03*
X1112800Y597500D02*
D03*
Y567500D02*
D03*
X1102800Y597500D02*
D03*
Y567500D02*
D03*
X1092800Y597500D02*
D03*
Y567500D02*
D03*
X1082800Y597500D02*
D03*
Y567500D02*
D03*
X1072800Y597500D02*
D03*
Y567500D02*
D03*
X1062800Y597500D02*
D03*
Y567500D02*
D03*
X1052800Y597500D02*
D03*
Y567500D02*
D03*
X1042800Y597500D02*
D03*
Y567500D02*
D03*
X1032800Y597500D02*
D03*
Y567500D02*
D03*
X1022800Y597500D02*
D03*
Y567500D02*
D03*
X1012800Y597500D02*
D03*
Y567500D02*
D03*
X1002800Y597500D02*
D03*
Y567500D02*
D03*
X992800Y597500D02*
D03*
Y567500D02*
D03*
X982800Y597500D02*
D03*
Y567500D02*
D03*
X972800Y597500D02*
D03*
Y567500D02*
D03*
X962800Y597500D02*
D03*
Y567500D02*
D03*
X952800Y597500D02*
D03*
Y567500D02*
D03*
X942800Y597500D02*
D03*
Y567500D02*
D03*
X932800Y597500D02*
D03*
Y567500D02*
D03*
X922800Y597500D02*
D03*
Y567500D02*
D03*
X512600Y597500D02*
D03*
Y567600D02*
D03*
X522600D02*
D03*
X532600D02*
D03*
X542600D02*
D03*
X552600D02*
D03*
X562600D02*
D03*
X572600D02*
D03*
X552600Y597600D02*
D03*
X542600D02*
D03*
X532600D02*
D03*
X522600D02*
D03*
X562600D02*
D03*
X572600D02*
D03*
X82600D02*
D03*
X92600Y597300D02*
D03*
X152600Y567600D02*
D03*
Y597600D02*
D03*
X112600D02*
D03*
X122600D02*
D03*
X132600D02*
D03*
X142600D02*
D03*
Y567600D02*
D03*
X132600D02*
D03*
X122600D02*
D03*
X112600D02*
D03*
X102600D02*
D03*
X92600D02*
D03*
X82600D02*
D03*
X102600Y597500D02*
D03*
X832600Y567600D02*
D03*
X842600D02*
D03*
X852600D02*
D03*
Y597600D02*
D03*
X842600D02*
D03*
X832600D02*
D03*
X782600Y567600D02*
D03*
X792600D02*
D03*
X802600D02*
D03*
X812600D02*
D03*
X822600D02*
D03*
Y597600D02*
D03*
X812600D02*
D03*
X802600D02*
D03*
X792600D02*
D03*
X782600D02*
D03*
X712600Y567600D02*
D03*
X702600D02*
D03*
X692600D02*
D03*
X682600D02*
D03*
X672600D02*
D03*
X662600D02*
D03*
X652600D02*
D03*
X642600D02*
D03*
Y597600D02*
D03*
X652600D02*
D03*
X662600D02*
D03*
X672600D02*
D03*
X682600D02*
D03*
X692600D02*
D03*
X702600D02*
D03*
X712600D02*
D03*
X412600Y567600D02*
D03*
X422600D02*
D03*
X432600D02*
D03*
Y597600D02*
D03*
X422600D02*
D03*
X412600D02*
D03*
X362600Y567600D02*
D03*
X372600D02*
D03*
X382600D02*
D03*
X392600D02*
D03*
X402600D02*
D03*
Y597600D02*
D03*
X392600D02*
D03*
X382600D02*
D03*
X372600D02*
D03*
X362600D02*
D03*
X282600Y567600D02*
D03*
X292600D02*
D03*
Y597600D02*
D03*
X282600D02*
D03*
X252600Y567600D02*
D03*
X262600D02*
D03*
X272600D02*
D03*
Y597600D02*
D03*
X262600D02*
D03*
X252600D02*
D03*
X222600Y567600D02*
D03*
X232600D02*
D03*
X242600D02*
D03*
Y597600D02*
D03*
X232600D02*
D03*
X222600D02*
D03*
D14*
X941700Y461500D02*
D03*
X791900Y498600D02*
D03*
X802900Y506300D02*
D03*
X781700Y537900D02*
D03*
X443800Y499200D02*
D03*
X402300Y506700D02*
D03*
X347300Y537300D02*
D03*
X262200Y514800D02*
D03*
X232200Y522900D02*
D03*
X140700Y632000D02*
D03*
X180300Y623400D02*
D03*
X322400Y607700D02*
D03*
X342800Y590400D02*
D03*
X522700Y621800D02*
D03*
X612300Y629900D02*
D03*
X626500Y621400D02*
D03*
X761300Y550400D02*
D03*
X770400Y575600D02*
D03*
X760600Y590600D02*
D03*
X771300Y610200D02*
D03*
D15*
X650100Y70100D02*
D03*
X497600D02*
D03*
X910100Y107600D02*
D03*
X232600D02*
D03*
X137600Y475100D02*
D03*
X570100D02*
D03*
X1002600D02*
D03*
D16*
X812600Y617600D02*
D03*
Y627600D02*
D03*
Y637600D02*
D03*
Y647600D02*
D03*
X852600D02*
D03*
Y637600D02*
D03*
Y627600D02*
D03*
Y617600D02*
D03*
X712600D02*
D03*
Y627600D02*
D03*
Y637600D02*
D03*
Y647600D02*
D03*
X672600D02*
D03*
Y637600D02*
D03*
Y627600D02*
D03*
Y617600D02*
D03*
X352600Y457600D02*
D03*
Y467600D02*
D03*
Y477600D02*
D03*
Y487600D02*
D03*
X302600Y457600D02*
D03*
Y467600D02*
D03*
Y477600D02*
D03*
Y487600D02*
D03*
X262600Y457600D02*
D03*
Y467600D02*
D03*
Y477600D02*
D03*
Y487600D02*
D03*
X212600Y457600D02*
D03*
Y467600D02*
D03*
Y477600D02*
D03*
Y487600D02*
D03*
D17*
X472600Y567600D02*
D03*
Y597600D02*
D03*
X61700Y598500D02*
D03*
Y568500D02*
D03*
X1142200Y567700D02*
D03*
Y598300D02*
D03*
D18*
X542600Y557600D02*
D03*
X552600D02*
D03*
X562600D02*
D03*
X1122900Y617500D02*
D03*
X1122800Y607500D02*
D03*
Y557500D02*
D03*
X1122700Y547500D02*
D03*
X1112900Y617500D02*
D03*
X1112800Y607500D02*
D03*
Y557500D02*
D03*
X1112700Y547500D02*
D03*
X1102900Y617500D02*
D03*
X1102800Y607500D02*
D03*
Y557500D02*
D03*
X1102700Y547500D02*
D03*
X1092900Y617500D02*
D03*
X1092800Y607500D02*
D03*
Y557500D02*
D03*
X1092700Y547500D02*
D03*
X1082900Y617500D02*
D03*
X1082800Y607500D02*
D03*
Y557500D02*
D03*
X1082700Y547500D02*
D03*
X1072900Y617500D02*
D03*
X1072800Y607500D02*
D03*
Y557500D02*
D03*
X1072700Y547500D02*
D03*
X1062900Y617500D02*
D03*
X1062800Y607500D02*
D03*
Y557500D02*
D03*
X1062700Y547500D02*
D03*
X1052900Y617500D02*
D03*
X1052800Y607500D02*
D03*
Y557500D02*
D03*
X1052700Y547500D02*
D03*
X1042900Y617500D02*
D03*
X1042800Y607500D02*
D03*
Y557500D02*
D03*
X1042700Y547500D02*
D03*
X1032900Y617500D02*
D03*
X1032800Y607500D02*
D03*
Y557500D02*
D03*
X1032700Y547500D02*
D03*
X1022900Y617500D02*
D03*
X1022800Y607500D02*
D03*
Y557500D02*
D03*
X1022700Y547500D02*
D03*
X1012900Y617500D02*
D03*
X1012800Y607500D02*
D03*
Y557500D02*
D03*
X1012700Y547500D02*
D03*
X1002900Y617500D02*
D03*
X1002800Y607500D02*
D03*
Y557500D02*
D03*
X1002700Y547500D02*
D03*
X992900Y617500D02*
D03*
X992800Y607500D02*
D03*
Y557500D02*
D03*
X992700Y547500D02*
D03*
X982900Y617500D02*
D03*
X982800Y607500D02*
D03*
Y557500D02*
D03*
X982700Y547500D02*
D03*
X972900Y617500D02*
D03*
X972800Y607500D02*
D03*
Y557500D02*
D03*
X972700Y547500D02*
D03*
X962900Y617500D02*
D03*
X962800Y607500D02*
D03*
Y557500D02*
D03*
X962700Y547500D02*
D03*
X952900Y617500D02*
D03*
X952800Y607500D02*
D03*
Y557500D02*
D03*
X952700Y547500D02*
D03*
X942900Y617500D02*
D03*
X942800Y607500D02*
D03*
Y557500D02*
D03*
X942700Y547500D02*
D03*
X932900Y617500D02*
D03*
X932800Y607500D02*
D03*
Y557500D02*
D03*
X932700Y547500D02*
D03*
X922700D02*
D03*
X922800Y557500D02*
D03*
Y607500D02*
D03*
X922900Y617500D02*
D03*
X132600Y607600D02*
D03*
X122600D02*
D03*
M02*
