M48
;Layer_Color=9474304
;FILE_FORMAT=2:5
INCH,LZ
;TYPE=PLATED
T1F00S00C0.03500
T2F00S00C0.03600
T3F00S00C0.06200
T4F00S00C0.10200
T5F00S00C0.15200
%
T01
X10627Y05475
X10727
X10827
X10927
X11027
X11127
X11227
X11228Y05575
X11128
X11028
X10928
X10828
X10728
X10628
Y05675
X10728
X10828
X10928
X11028
X11128
X11228
X10528
Y05575
X10428
X10328
X10228
X10128
X10028
X09928
X09828
X09728
X09628
X09528
X09428
X09328
X09228
Y05675
X09328
X09428
X09528
X09628
X09728
X09828
X09928
X10028
X10128
X10228
X10328
X10428
X10427Y05475
X10527
X10327
X10227
X10127
X10027
X09927
X09827
X09727
X09627
X09527
X09427
X09327
X09227
X05626Y05576
X05526
X05426
Y05676
X05326
X05226
X05126
X05526
X05626
X05726
X01526
X01426
X01326
X01226
X01126
X01026
X00926
X00826
Y05976
X00926Y05973
X01026Y05975
X01126Y05976
X01226
Y06076
X01326
Y05976
X01426
X01526
X05126Y05975
X05226Y05976
X05326
X05426
X05526
X05626
X05726
X09228Y05975
Y06075
X09328
X09428
X09528
X09628
X09728
X09828
X09928
X10028
X10128
X10228
X10328
X10428
X10528
Y05975
X10428
X10328
X10228
X10128
X10028
X09928
X09828
X09728
X09628
X09528
X09428
X09328
X09329Y06175
X09429
X09529
X09629
X09729
X09829
X09929
X10029
X10129
X10229
X10329
X10429
X10529
X09229
X10629
X10729
X10829
X10929
X11029
X11129
X11229
X11228Y06075
X11128
X11028
X10928
X10828
X10728
X10628
Y05975
X10728
X10828
X10928
X11028
X11128
X11228
T02
X11422Y05677
X09417Y04615
X08029Y05063
X07919Y04986
X07817Y05379
X07826Y05676
X07926
X08026
X08126
X08226
X08326
X08426
X08526
X07704Y05756
X07606Y05906
X07613Y05504
X07126Y05676
X07026
X06926
X06826
X06726
X06626
X06526
X06426
X04726
X04326
X04438Y04992
X04023Y05067
X04026Y05676
X04126
X04226
X03926
X03826
X03726
X03626
X03428Y05904
X03473Y05373
X03526Y04876
Y04776
Y04676
Y04576
X03026
Y04676
Y04776
Y04876
X02926Y05676
X02826
X02726
X02626
X02526
X02426
X02326
X02226
X02322Y05229
X02622Y05148
X02626Y04876
Y04776
Y04676
Y04576
X02126
Y04676
Y04776
Y04876
X00917Y04985
Y05185
X00617Y05685
Y05985
X01407Y0632
X01803Y06234
X02226Y05976
X02326
X02426
X02526
X02626
X02726
X02826
X02926
X03224Y06077
X03626Y05976
X03726
X03826
X03926
X04026
X04126
X04226
X04326
X04726
X05227Y06218
X06123Y06299
X06265Y06214
X06426Y05976
X06526
X06626
X06726
X06826
X06926
X07026
X07126
Y06176
Y06276
Y06376
Y06476
X06726
Y06376
Y06276
Y06176
X07713Y06102
X07826Y05976
X07926
X08026
X08126
X08226
X08326
X08426
X08526
Y06176
Y06276
Y06376
Y06476
X08126
Y06376
Y06276
Y06176
X11422Y05983
T03
X05708Y00935
X10962Y02435
Y02755
X10212
Y02435
X10022Y02005
Y01685
X09083
Y02005
X09462Y02435
Y02755
X08712
Y02435
X07962
Y02755
X08333Y02005
Y01685
X07583
Y02005
X06833
Y01685
X06083
Y02005
X06462Y02435
Y02755
X07212
Y02435
X05712
Y02755
X04962
Y02435
X05333Y02005
Y01685
X04583
Y02005
X05708Y01255
X03833Y01685
Y02005
X03083
Y01685
X03462Y02435
Y02755
X04212
Y02435
X02712
Y02755
X01962
Y02435
X01212
Y02755
X01398Y02005
Y01685
X02337
Y02005
X01025Y03185
Y03505
X01775
Y03185
X02525
Y03505
X02161Y03935
Y04255
X01411
Y03935
X02911
Y04255
X03661
Y03935
X04025Y03505
Y03185
X03275
Y03505
X04775
Y03185
X05525
Y03505
X05161Y03935
Y04255
X04411
Y03935
X05911
Y04255
X06661
Y03935
X07411
Y04255
X07025Y03505
Y03185
X06275
Y03505
X07775
Y03185
X08525
Y03505
X08161Y03935
Y04255
X08911
Y03935
X09661
Y04255
X10411
Y03935
X10214Y03505
Y03185
X09275
Y03505
T04
X04976Y00701
X06501
T05
X02326Y01076
X09101
X10026Y04751
X05701
X01376
M30
