G04*
G04 #@! TF.GenerationSoftware,Altium Limited,Altium Designer,18.1.9 (240)*
G04*
G04 Layer_Physical_Order=1*
G04 Layer_Color=255*
%FSLAX25Y25*%
%MOIN*%
G70*
G01*
G75*
%ADD19C,0.01500*%
%ADD20C,0.02500*%
%ADD21C,0.07000*%
%ADD22C,0.05000*%
%ADD23C,0.01000*%
%ADD24C,0.15000*%
%ADD25O,0.07000X0.12500*%
%ADD26C,0.10000*%
%ADD27R,0.15000X0.15000*%
%ADD28O,0.12500X0.07000*%
%ADD29C,0.12500*%
%ADD30C,0.05000*%
G36*
X1081500Y497500D02*
D01*
D02*
G37*
G36*
X143866Y510463D02*
X145273D01*
Y509364D01*
X143866D01*
Y504474D01*
Y504466D01*
Y504449D01*
Y504416D01*
Y504374D01*
Y504274D01*
X143874Y504149D01*
X143882Y504024D01*
X143891Y503891D01*
X143907Y503783D01*
X143924Y503741D01*
X143932Y503699D01*
Y503691D01*
X143949Y503674D01*
X143966Y503641D01*
X143991Y503599D01*
X144066Y503508D01*
X144116Y503466D01*
X144174Y503424D01*
X144182D01*
X144207Y503408D01*
X144240Y503391D01*
X144299Y503374D01*
X144366Y503358D01*
X144449Y503341D01*
X144549Y503333D01*
X144657Y503325D01*
X144749D01*
X144824Y503333D01*
X144907D01*
X145015Y503349D01*
X145140Y503358D01*
X145273Y503374D01*
X145482Y502125D01*
X145473D01*
X145457Y502117D01*
X145423D01*
X145382Y502108D01*
X145332Y502100D01*
X145265Y502083D01*
X145124Y502067D01*
X144957Y502042D01*
X144774Y502017D01*
X144590Y502008D01*
X144407Y502000D01*
X144282D01*
X144216Y502008D01*
X144141Y502017D01*
X143974Y502033D01*
X143782Y502058D01*
X143582Y502100D01*
X143391Y502158D01*
X143216Y502242D01*
X143208D01*
X143199Y502250D01*
X143149Y502283D01*
X143074Y502342D01*
X142983Y502408D01*
X142883Y502500D01*
X142783Y502608D01*
X142691Y502733D01*
X142616Y502875D01*
Y502883D01*
X142608Y502891D01*
X142599Y502916D01*
X142591Y502958D01*
X142575Y503008D01*
X142566Y503066D01*
X142550Y503141D01*
X142533Y503233D01*
X142516Y503341D01*
X142500Y503458D01*
X142491Y503599D01*
X142475Y503749D01*
X142466Y503924D01*
X142458Y504108D01*
X142450Y504324D01*
Y504549D01*
Y509364D01*
X141400D01*
Y510463D01*
X142450D01*
Y512529D01*
X143866Y513379D01*
Y510463D01*
D02*
G37*
G36*
X126057Y510713D02*
X126157Y510705D01*
X126274Y510697D01*
X126398Y510688D01*
X126523Y510672D01*
X126665Y510655D01*
X126956Y510605D01*
X127256Y510530D01*
X127540Y510438D01*
X127548D01*
X127573Y510422D01*
X127615Y510413D01*
X127665Y510388D01*
X127723Y510355D01*
X127790Y510322D01*
X127956Y510238D01*
X128131Y510130D01*
X128314Y509997D01*
X128481Y509847D01*
X128564Y509764D01*
X128631Y509672D01*
X128639Y509664D01*
X128647Y509647D01*
X128664Y509622D01*
X128689Y509580D01*
X128723Y509539D01*
X128756Y509480D01*
X128789Y509405D01*
X128831Y509330D01*
X128873Y509239D01*
X128914Y509147D01*
X128956Y509039D01*
X128989Y508922D01*
X129031Y508797D01*
X129072Y508672D01*
X129131Y508381D01*
X127748Y508189D01*
Y508197D01*
X127740Y508214D01*
Y508248D01*
X127723Y508297D01*
X127715Y508348D01*
X127690Y508414D01*
X127640Y508556D01*
X127565Y508714D01*
X127473Y508881D01*
X127348Y509047D01*
X127273Y509122D01*
X127190Y509189D01*
X127181Y509197D01*
X127173Y509205D01*
X127140Y509222D01*
X127106Y509247D01*
X127057Y509272D01*
X127006Y509305D01*
X126940Y509339D01*
X126865Y509372D01*
X126773Y509405D01*
X126682Y509439D01*
X126573Y509472D01*
X126465Y509497D01*
X126340Y509522D01*
X126207Y509539D01*
X126065Y509555D01*
X125824D01*
X125757Y509547D01*
X125674D01*
X125582Y509539D01*
X125482Y509530D01*
X125374Y509514D01*
X125141Y509480D01*
X124907Y509422D01*
X124799Y509380D01*
X124699Y509339D01*
X124599Y509289D01*
X124516Y509230D01*
X124507D01*
X124499Y509214D01*
X124449Y509172D01*
X124383Y509105D01*
X124308Y509014D01*
X124233Y508906D01*
X124166Y508781D01*
X124116Y508639D01*
X124108Y508556D01*
X124099Y508481D01*
Y508472D01*
Y508431D01*
X124108Y508381D01*
X124124Y508314D01*
X124141Y508239D01*
X124166Y508156D01*
X124208Y508064D01*
X124266Y507981D01*
X124274Y507973D01*
X124299Y507948D01*
X124341Y507906D01*
X124399Y507848D01*
X124474Y507789D01*
X124574Y507731D01*
X124682Y507664D01*
X124816Y507606D01*
X124824D01*
X124841Y507598D01*
X124866Y507589D01*
X124899Y507581D01*
X124941Y507564D01*
X124991Y507556D01*
X125049Y507531D01*
X125124Y507514D01*
X125216Y507489D01*
X125315Y507456D01*
X125432Y507423D01*
X125565Y507389D01*
X125715Y507348D01*
X125890Y507298D01*
X126074Y507248D01*
X126082D01*
X126090Y507240D01*
X126140Y507231D01*
X126215Y507206D01*
X126315Y507181D01*
X126440Y507148D01*
X126582Y507106D01*
X126740Y507065D01*
X126898Y507015D01*
X127248Y506915D01*
X127598Y506798D01*
X127756Y506748D01*
X127915Y506690D01*
X128048Y506640D01*
X128173Y506590D01*
X128181D01*
X128198Y506581D01*
X128231Y506565D01*
X128273Y506540D01*
X128323Y506515D01*
X128381Y506482D01*
X128514Y506398D01*
X128664Y506290D01*
X128814Y506165D01*
X128964Y506015D01*
X129106Y505840D01*
Y505832D01*
X129122Y505815D01*
X129139Y505790D01*
X129156Y505757D01*
X129189Y505707D01*
X129214Y505649D01*
X129247Y505582D01*
X129281Y505507D01*
X129306Y505424D01*
X129339Y505332D01*
X129397Y505132D01*
X129431Y504899D01*
X129447Y504641D01*
Y504632D01*
Y504607D01*
Y504574D01*
X129439Y504524D01*
Y504457D01*
X129422Y504382D01*
X129414Y504299D01*
X129397Y504207D01*
X129347Y504007D01*
X129272Y503783D01*
X129222Y503666D01*
X129172Y503541D01*
X129106Y503424D01*
X129031Y503308D01*
X129022Y503300D01*
X129014Y503283D01*
X128989Y503250D01*
X128956Y503208D01*
X128914Y503150D01*
X128856Y503091D01*
X128797Y503025D01*
X128723Y502950D01*
X128647Y502875D01*
X128556Y502800D01*
X128456Y502716D01*
X128348Y502633D01*
X128231Y502558D01*
X128106Y502483D01*
X127973Y502408D01*
X127831Y502342D01*
X127823D01*
X127798Y502325D01*
X127756Y502308D01*
X127698Y502292D01*
X127623Y502267D01*
X127531Y502233D01*
X127431Y502200D01*
X127323Y502175D01*
X127198Y502142D01*
X127065Y502108D01*
X126915Y502083D01*
X126765Y502050D01*
X126432Y502017D01*
X126074Y502000D01*
X125999D01*
X125915Y502008D01*
X125807D01*
X125665Y502025D01*
X125515Y502033D01*
X125340Y502058D01*
X125149Y502083D01*
X124949Y502117D01*
X124749Y502167D01*
X124541Y502217D01*
X124333Y502283D01*
X124133Y502358D01*
X123933Y502450D01*
X123749Y502558D01*
X123583Y502675D01*
X123575Y502683D01*
X123550Y502708D01*
X123500Y502750D01*
X123450Y502800D01*
X123383Y502875D01*
X123300Y502958D01*
X123216Y503058D01*
X123133Y503183D01*
X123041Y503316D01*
X122942Y503458D01*
X122858Y503624D01*
X122767Y503808D01*
X122683Y503999D01*
X122617Y504216D01*
X122550Y504441D01*
X122500Y504682D01*
X123899Y504899D01*
Y504890D01*
X123908Y504866D01*
X123916Y504815D01*
X123924Y504757D01*
X123941Y504691D01*
X123966Y504607D01*
X123991Y504516D01*
X124024Y504424D01*
X124108Y504216D01*
X124224Y503999D01*
X124291Y503891D01*
X124366Y503791D01*
X124458Y503699D01*
X124549Y503608D01*
X124557Y503599D01*
X124574Y503591D01*
X124608Y503566D01*
X124649Y503541D01*
X124707Y503508D01*
X124774Y503466D01*
X124849Y503424D01*
X124941Y503391D01*
X125041Y503349D01*
X125157Y503308D01*
X125282Y503266D01*
X125416Y503233D01*
X125565Y503208D01*
X125724Y503183D01*
X125890Y503174D01*
X126065Y503166D01*
X126157D01*
X126224Y503174D01*
X126307D01*
X126398Y503191D01*
X126498Y503199D01*
X126615Y503216D01*
X126848Y503266D01*
X127090Y503333D01*
X127315Y503433D01*
X127423Y503491D01*
X127515Y503558D01*
X127523Y503566D01*
X127531Y503574D01*
X127556Y503599D01*
X127590Y503633D01*
X127665Y503716D01*
X127756Y503824D01*
X127840Y503958D01*
X127915Y504124D01*
X127948Y504207D01*
X127973Y504299D01*
X127981Y504391D01*
X127989Y504491D01*
Y504499D01*
Y504516D01*
Y504541D01*
X127981Y504566D01*
X127964Y504657D01*
X127939Y504766D01*
X127890Y504882D01*
X127814Y505007D01*
X127765Y505065D01*
X127706Y505132D01*
X127640Y505190D01*
X127565Y505240D01*
X127548Y505249D01*
X127531Y505257D01*
X127506Y505274D01*
X127465Y505290D01*
X127415Y505315D01*
X127348Y505340D01*
X127281Y505374D01*
X127190Y505407D01*
X127090Y505440D01*
X126965Y505482D01*
X126832Y505524D01*
X126682Y505565D01*
X126515Y505615D01*
X126323Y505665D01*
X126115Y505715D01*
X126107D01*
X126099Y505723D01*
X126049Y505732D01*
X125965Y505757D01*
X125865Y505782D01*
X125732Y505815D01*
X125590Y505857D01*
X125432Y505898D01*
X125257Y505948D01*
X124899Y506057D01*
X124541Y506173D01*
X124374Y506232D01*
X124216Y506290D01*
X124074Y506348D01*
X123949Y506398D01*
X123941D01*
X123924Y506415D01*
X123891Y506432D01*
X123849Y506448D01*
X123800Y506482D01*
X123741Y506515D01*
X123608Y506606D01*
X123466Y506715D01*
X123316Y506848D01*
X123166Y507006D01*
X123041Y507190D01*
Y507198D01*
X123025Y507215D01*
X123017Y507240D01*
X122992Y507281D01*
X122967Y507323D01*
X122942Y507381D01*
X122916Y507448D01*
X122891Y507523D01*
X122833Y507689D01*
X122783Y507881D01*
X122750Y508089D01*
X122733Y508314D01*
Y508322D01*
Y508339D01*
Y508372D01*
X122742Y508406D01*
Y508456D01*
X122750Y508514D01*
X122767Y508656D01*
X122792Y508814D01*
X122842Y508989D01*
X122900Y509164D01*
X122983Y509347D01*
Y509355D01*
X122992Y509372D01*
X123008Y509397D01*
X123033Y509430D01*
X123091Y509514D01*
X123166Y509622D01*
X123266Y509747D01*
X123391Y509880D01*
X123525Y510013D01*
X123683Y510138D01*
X123699Y510147D01*
X123741Y510180D01*
X123816Y510222D01*
X123924Y510280D01*
X124049Y510347D01*
X124199Y510413D01*
X124383Y510480D01*
X124583Y510547D01*
X124591D01*
X124608Y510555D01*
X124641Y510563D01*
X124682Y510572D01*
X124732Y510588D01*
X124799Y510605D01*
X124874Y510622D01*
X124949Y510638D01*
X125132Y510663D01*
X125340Y510697D01*
X125565Y510713D01*
X125807Y510721D01*
X125974D01*
X126057Y510713D01*
D02*
G37*
G36*
X135357D02*
X135473Y510705D01*
X135623Y510688D01*
X135782Y510663D01*
X135965Y510630D01*
X136165Y510580D01*
X136381Y510522D01*
X136598Y510447D01*
X136831Y510355D01*
X137056Y510238D01*
X137289Y510113D01*
X137506Y509955D01*
X137722Y509780D01*
X137931Y509580D01*
X137939Y509564D01*
X137981Y509530D01*
X138031Y509464D01*
X138097Y509372D01*
X138181Y509255D01*
X138272Y509114D01*
X138364Y508947D01*
X138464Y508756D01*
X138564Y508539D01*
X138664Y508297D01*
X138747Y508031D01*
X138830Y507748D01*
X138897Y507440D01*
X138955Y507106D01*
X138989Y506748D01*
X138997Y506373D01*
Y506365D01*
Y506348D01*
Y506323D01*
Y506282D01*
Y506223D01*
Y506165D01*
X138989Y506090D01*
Y505998D01*
X132758D01*
Y505982D01*
X132766Y505940D01*
Y505865D01*
X132783Y505773D01*
X132799Y505657D01*
X132816Y505524D01*
X132849Y505382D01*
X132883Y505224D01*
X132924Y505049D01*
X132983Y504882D01*
X133041Y504707D01*
X133116Y504532D01*
X133199Y504357D01*
X133299Y504191D01*
X133407Y504033D01*
X133532Y503891D01*
X133541Y503883D01*
X133566Y503858D01*
X133607Y503824D01*
X133657Y503774D01*
X133724Y503724D01*
X133807Y503666D01*
X133907Y503599D01*
X134016Y503533D01*
X134132Y503458D01*
X134265Y503399D01*
X134407Y503333D01*
X134565Y503283D01*
X134732Y503233D01*
X134907Y503199D01*
X135090Y503174D01*
X135282Y503166D01*
X135357D01*
X135415Y503174D01*
X135482Y503183D01*
X135557Y503191D01*
X135648Y503199D01*
X135740Y503216D01*
X135948Y503266D01*
X136173Y503341D01*
X136290Y503383D01*
X136398Y503441D01*
X136506Y503499D01*
X136615Y503574D01*
X136623Y503583D01*
X136639Y503591D01*
X136664Y503616D01*
X136706Y503649D01*
X136756Y503699D01*
X136806Y503749D01*
X136864Y503816D01*
X136931Y503891D01*
X136998Y503982D01*
X137073Y504074D01*
X137139Y504182D01*
X137214Y504299D01*
X137289Y504432D01*
X137356Y504574D01*
X137423Y504724D01*
X137489Y504890D01*
X138947Y504699D01*
Y504682D01*
X138930Y504641D01*
X138905Y504574D01*
X138880Y504491D01*
X138839Y504382D01*
X138789Y504257D01*
X138730Y504116D01*
X138655Y503966D01*
X138572Y503816D01*
X138480Y503649D01*
X138372Y503483D01*
X138256Y503316D01*
X138131Y503158D01*
X137989Y503000D01*
X137831Y502850D01*
X137664Y502708D01*
X137656Y502700D01*
X137622Y502675D01*
X137573Y502641D01*
X137497Y502600D01*
X137406Y502541D01*
X137289Y502483D01*
X137164Y502417D01*
X137014Y502358D01*
X136848Y502292D01*
X136673Y502225D01*
X136473Y502167D01*
X136265Y502108D01*
X136040Y502067D01*
X135798Y502033D01*
X135540Y502008D01*
X135273Y502000D01*
X135190D01*
X135149Y502008D01*
X135099D01*
X134974Y502017D01*
X134815Y502033D01*
X134640Y502058D01*
X134440Y502092D01*
X134224Y502142D01*
X133999Y502200D01*
X133757Y502275D01*
X133516Y502366D01*
X133274Y502475D01*
X133033Y502600D01*
X132799Y502750D01*
X132574Y502925D01*
X132366Y503125D01*
X132358Y503141D01*
X132325Y503174D01*
X132266Y503241D01*
X132200Y503333D01*
X132116Y503449D01*
X132033Y503591D01*
X131933Y503749D01*
X131833Y503941D01*
X131733Y504157D01*
X131641Y504391D01*
X131550Y504649D01*
X131467Y504932D01*
X131400Y505240D01*
X131350Y505565D01*
X131308Y505915D01*
X131300Y506290D01*
Y506298D01*
Y506315D01*
Y506340D01*
Y506382D01*
X131308Y506432D01*
Y506490D01*
Y506557D01*
X131317Y506640D01*
X131333Y506815D01*
X131358Y507015D01*
X131392Y507240D01*
X131433Y507489D01*
X131492Y507739D01*
X131567Y508006D01*
X131650Y508281D01*
X131758Y508556D01*
X131883Y508822D01*
X132025Y509081D01*
X132191Y509330D01*
X132383Y509555D01*
X132400Y509572D01*
X132433Y509605D01*
X132491Y509664D01*
X132583Y509739D01*
X132691Y509830D01*
X132816Y509922D01*
X132966Y510030D01*
X133141Y510138D01*
X133333Y510247D01*
X133549Y510355D01*
X133774Y510455D01*
X134024Y510538D01*
X134299Y510613D01*
X134582Y510672D01*
X134882Y510705D01*
X135198Y510721D01*
X135273D01*
X135357Y510713D01*
D02*
G37*
G36*
X116957D02*
X117073Y510705D01*
X117223Y510688D01*
X117382Y510663D01*
X117565Y510630D01*
X117765Y510580D01*
X117981Y510522D01*
X118198Y510447D01*
X118431Y510355D01*
X118656Y510238D01*
X118889Y510113D01*
X119106Y509955D01*
X119322Y509780D01*
X119531Y509580D01*
X119539Y509564D01*
X119581Y509530D01*
X119631Y509464D01*
X119697Y509372D01*
X119781Y509255D01*
X119872Y509114D01*
X119964Y508947D01*
X120064Y508756D01*
X120164Y508539D01*
X120264Y508297D01*
X120347Y508031D01*
X120430Y507748D01*
X120497Y507440D01*
X120555Y507106D01*
X120589Y506748D01*
X120597Y506373D01*
Y506365D01*
Y506348D01*
Y506323D01*
Y506282D01*
Y506223D01*
Y506165D01*
X120589Y506090D01*
Y505998D01*
X114358D01*
Y505982D01*
X114366Y505940D01*
Y505865D01*
X114383Y505773D01*
X114399Y505657D01*
X114416Y505524D01*
X114449Y505382D01*
X114483Y505224D01*
X114524Y505049D01*
X114583Y504882D01*
X114641Y504707D01*
X114716Y504532D01*
X114799Y504357D01*
X114899Y504191D01*
X115007Y504033D01*
X115132Y503891D01*
X115141Y503883D01*
X115166Y503858D01*
X115207Y503824D01*
X115257Y503774D01*
X115324Y503724D01*
X115407Y503666D01*
X115507Y503599D01*
X115616Y503533D01*
X115732Y503458D01*
X115866Y503399D01*
X116007Y503333D01*
X116165Y503283D01*
X116332Y503233D01*
X116507Y503199D01*
X116690Y503174D01*
X116882Y503166D01*
X116957D01*
X117015Y503174D01*
X117082Y503183D01*
X117157Y503191D01*
X117248Y503199D01*
X117340Y503216D01*
X117548Y503266D01*
X117773Y503341D01*
X117890Y503383D01*
X117998Y503441D01*
X118106Y503499D01*
X118214Y503574D01*
X118223Y503583D01*
X118239Y503591D01*
X118264Y503616D01*
X118306Y503649D01*
X118356Y503699D01*
X118406Y503749D01*
X118464Y503816D01*
X118531Y503891D01*
X118598Y503982D01*
X118673Y504074D01*
X118739Y504182D01*
X118814Y504299D01*
X118889Y504432D01*
X118956Y504574D01*
X119023Y504724D01*
X119089Y504890D01*
X120547Y504699D01*
Y504682D01*
X120530Y504641D01*
X120505Y504574D01*
X120480Y504491D01*
X120439Y504382D01*
X120389Y504257D01*
X120330Y504116D01*
X120255Y503966D01*
X120172Y503816D01*
X120080Y503649D01*
X119972Y503483D01*
X119855Y503316D01*
X119731Y503158D01*
X119589Y503000D01*
X119431Y502850D01*
X119264Y502708D01*
X119256Y502700D01*
X119222Y502675D01*
X119173Y502641D01*
X119097Y502600D01*
X119006Y502541D01*
X118889Y502483D01*
X118764Y502417D01*
X118614Y502358D01*
X118448Y502292D01*
X118273Y502225D01*
X118073Y502167D01*
X117865Y502108D01*
X117640Y502067D01*
X117398Y502033D01*
X117140Y502008D01*
X116873Y502000D01*
X116790D01*
X116748Y502008D01*
X116699D01*
X116574Y502017D01*
X116415Y502033D01*
X116240Y502058D01*
X116040Y502092D01*
X115824Y502142D01*
X115599Y502200D01*
X115357Y502275D01*
X115116Y502366D01*
X114874Y502475D01*
X114633Y502600D01*
X114399Y502750D01*
X114174Y502925D01*
X113966Y503125D01*
X113958Y503141D01*
X113925Y503174D01*
X113866Y503241D01*
X113800Y503333D01*
X113716Y503449D01*
X113633Y503591D01*
X113533Y503749D01*
X113433Y503941D01*
X113333Y504157D01*
X113242Y504391D01*
X113150Y504649D01*
X113067Y504932D01*
X113000Y505240D01*
X112950Y505565D01*
X112908Y505915D01*
X112900Y506290D01*
Y506298D01*
Y506315D01*
Y506340D01*
Y506382D01*
X112908Y506432D01*
Y506490D01*
Y506557D01*
X112917Y506640D01*
X112933Y506815D01*
X112958Y507015D01*
X112992Y507240D01*
X113033Y507489D01*
X113092Y507739D01*
X113167Y508006D01*
X113250Y508281D01*
X113358Y508556D01*
X113483Y508822D01*
X113625Y509081D01*
X113791Y509330D01*
X113983Y509555D01*
X114000Y509572D01*
X114033Y509605D01*
X114091Y509664D01*
X114183Y509739D01*
X114291Y509830D01*
X114416Y509922D01*
X114566Y510030D01*
X114741Y510138D01*
X114933Y510247D01*
X115149Y510355D01*
X115374Y510455D01*
X115624Y510538D01*
X115899Y510613D01*
X116182Y510672D01*
X116482Y510705D01*
X116798Y510721D01*
X116873D01*
X116957Y510713D01*
D02*
G37*
G36*
X107456Y513520D02*
X107589D01*
X107739Y513512D01*
X107898Y513504D01*
X108081Y513487D01*
X108264Y513470D01*
X108456Y513454D01*
X108847Y513395D01*
X109031Y513362D01*
X109214Y513320D01*
X109389Y513271D01*
X109547Y513212D01*
X109555D01*
X109580Y513196D01*
X109622Y513179D01*
X109680Y513154D01*
X109747Y513121D01*
X109822Y513071D01*
X109914Y513021D01*
X110005Y512962D01*
X110105Y512887D01*
X110213Y512812D01*
X110322Y512721D01*
X110430Y512621D01*
X110530Y512504D01*
X110638Y512388D01*
X110738Y512254D01*
X110830Y512113D01*
X110838Y512104D01*
X110855Y512079D01*
X110872Y512038D01*
X110905Y511979D01*
X110938Y511904D01*
X110980Y511813D01*
X111030Y511713D01*
X111071Y511604D01*
X111113Y511480D01*
X111163Y511346D01*
X111205Y511205D01*
X111238Y511055D01*
X111271Y510896D01*
X111296Y510730D01*
X111305Y510555D01*
X111313Y510380D01*
Y510363D01*
Y510330D01*
X111305Y510263D01*
Y510172D01*
X111288Y510072D01*
X111271Y509947D01*
X111246Y509813D01*
X111213Y509664D01*
X111171Y509505D01*
X111121Y509339D01*
X111055Y509164D01*
X110980Y508989D01*
X110888Y508814D01*
X110780Y508647D01*
X110655Y508472D01*
X110513Y508314D01*
X110505Y508306D01*
X110480Y508281D01*
X110430Y508239D01*
X110363Y508181D01*
X110280Y508114D01*
X110172Y508039D01*
X110055Y507956D01*
X109914Y507864D01*
X109747Y507773D01*
X109572Y507681D01*
X109364Y507598D01*
X109147Y507506D01*
X108906Y507431D01*
X108647Y507356D01*
X108364Y507298D01*
X108064Y507248D01*
X108073D01*
X108089Y507231D01*
X108123Y507223D01*
X108164Y507198D01*
X108214Y507173D01*
X108273Y507140D01*
X108406Y507065D01*
X108556Y506981D01*
X108706Y506881D01*
X108847Y506781D01*
X108981Y506673D01*
X108989Y506665D01*
X109014Y506648D01*
X109047Y506606D01*
X109097Y506565D01*
X109155Y506498D01*
X109222Y506432D01*
X109305Y506348D01*
X109389Y506248D01*
X109480Y506140D01*
X109580Y506023D01*
X109689Y505898D01*
X109797Y505765D01*
X109905Y505615D01*
X110022Y505465D01*
X110247Y505132D01*
X112238Y502000D01*
X110330D01*
X108806Y504399D01*
X108797Y504407D01*
X108772Y504441D01*
X108739Y504499D01*
X108697Y504566D01*
X108639Y504657D01*
X108572Y504757D01*
X108497Y504866D01*
X108423Y504982D01*
X108247Y505240D01*
X108064Y505507D01*
X107881Y505757D01*
X107789Y505873D01*
X107706Y505982D01*
X107698Y505990D01*
X107689Y506007D01*
X107664Y506032D01*
X107631Y506073D01*
X107548Y506173D01*
X107448Y506290D01*
X107323Y506415D01*
X107198Y506548D01*
X107065Y506665D01*
X106931Y506756D01*
X106915Y506765D01*
X106873Y506790D01*
X106806Y506831D01*
X106715Y506873D01*
X106615Y506923D01*
X106498Y506981D01*
X106373Y507023D01*
X106240Y507065D01*
X106232D01*
X106190Y507073D01*
X106123Y507081D01*
X106040Y507098D01*
X105923Y507106D01*
X105773Y507115D01*
X105599Y507123D01*
X103624D01*
Y502000D01*
X102100D01*
Y513529D01*
X107356D01*
X107456Y513520D01*
D02*
G37*
G36*
X1059473Y510212D02*
X1059590Y510204D01*
X1059732Y510195D01*
X1059890Y510170D01*
X1060073Y510145D01*
X1060265Y510104D01*
X1060473Y510054D01*
X1060681Y509996D01*
X1060906Y509921D01*
X1061123Y509829D01*
X1061339Y509721D01*
X1061547Y509604D01*
X1061747Y509462D01*
X1061939Y509296D01*
X1061947Y509287D01*
X1061981Y509254D01*
X1062031Y509204D01*
X1062089Y509129D01*
X1062164Y509046D01*
X1062247Y508938D01*
X1062339Y508813D01*
X1062430Y508671D01*
X1062514Y508513D01*
X1062605Y508338D01*
X1062689Y508146D01*
X1062764Y507946D01*
X1062822Y507730D01*
X1062872Y507505D01*
X1062905Y507263D01*
X1062914Y507013D01*
Y507005D01*
Y506980D01*
Y506947D01*
Y506897D01*
X1062905Y506830D01*
X1062897Y506763D01*
X1062889Y506680D01*
X1062880Y506589D01*
X1062847Y506380D01*
X1062797Y506147D01*
X1062722Y505905D01*
X1062630Y505655D01*
Y505647D01*
X1062614Y505622D01*
X1062597Y505589D01*
X1062572Y505539D01*
X1062547Y505481D01*
X1062506Y505406D01*
X1062464Y505322D01*
X1062405Y505231D01*
X1062347Y505131D01*
X1062280Y505022D01*
X1062114Y504781D01*
X1062022Y504656D01*
X1061922Y504523D01*
X1061806Y504389D01*
X1061689Y504248D01*
X1061681Y504239D01*
X1061656Y504214D01*
X1061623Y504173D01*
X1061564Y504114D01*
X1061489Y504039D01*
X1061398Y503948D01*
X1061298Y503840D01*
X1061173Y503715D01*
X1061031Y503581D01*
X1060864Y503431D01*
X1060690Y503265D01*
X1060490Y503082D01*
X1060273Y502890D01*
X1060040Y502682D01*
X1059781Y502457D01*
X1059507Y502224D01*
X1059490Y502215D01*
X1059448Y502174D01*
X1059390Y502124D01*
X1059307Y502049D01*
X1059198Y501965D01*
X1059090Y501865D01*
X1058965Y501757D01*
X1058832Y501641D01*
X1058549Y501399D01*
X1058415Y501274D01*
X1058282Y501157D01*
X1058157Y501041D01*
X1058049Y500941D01*
X1057949Y500849D01*
X1057874Y500766D01*
X1057857Y500749D01*
X1057816Y500699D01*
X1057749Y500624D01*
X1057666Y500533D01*
X1057574Y500416D01*
X1057474Y500291D01*
X1057374Y500149D01*
X1057283Y500008D01*
X1062930D01*
Y498650D01*
X1055317D01*
Y498658D01*
Y498675D01*
Y498700D01*
Y498733D01*
Y498783D01*
X1055325Y498833D01*
X1055333Y498967D01*
X1055350Y499108D01*
X1055375Y499275D01*
X1055417Y499450D01*
X1055475Y499625D01*
Y499633D01*
X1055492Y499658D01*
X1055508Y499700D01*
X1055533Y499758D01*
X1055558Y499833D01*
X1055600Y499916D01*
X1055650Y500008D01*
X1055700Y500108D01*
X1055758Y500224D01*
X1055833Y500341D01*
X1055991Y500599D01*
X1056183Y500874D01*
X1056408Y501157D01*
X1056416Y501166D01*
X1056441Y501191D01*
X1056474Y501232D01*
X1056524Y501291D01*
X1056591Y501366D01*
X1056674Y501449D01*
X1056766Y501549D01*
X1056883Y501657D01*
X1057008Y501782D01*
X1057141Y501915D01*
X1057291Y502057D01*
X1057458Y502215D01*
X1057641Y502374D01*
X1057832Y502540D01*
X1058041Y502715D01*
X1058257Y502898D01*
X1058265Y502907D01*
X1058282Y502915D01*
X1058307Y502940D01*
X1058340Y502965D01*
X1058382Y503007D01*
X1058432Y503048D01*
X1058557Y503157D01*
X1058715Y503281D01*
X1058882Y503440D01*
X1059074Y503606D01*
X1059273Y503790D01*
X1059490Y503981D01*
X1059698Y504181D01*
X1059915Y504381D01*
X1060115Y504589D01*
X1060315Y504789D01*
X1060490Y504981D01*
X1060656Y505172D01*
X1060789Y505347D01*
X1060798Y505356D01*
X1060814Y505389D01*
X1060848Y505439D01*
X1060898Y505497D01*
X1060948Y505581D01*
X1060998Y505672D01*
X1061064Y505781D01*
X1061123Y505897D01*
X1061181Y506022D01*
X1061248Y506155D01*
X1061356Y506447D01*
X1061398Y506597D01*
X1061431Y506747D01*
X1061448Y506897D01*
X1061456Y507047D01*
Y507055D01*
Y507088D01*
Y507130D01*
X1061448Y507188D01*
X1061439Y507263D01*
X1061423Y507346D01*
X1061406Y507438D01*
X1061381Y507538D01*
X1061348Y507646D01*
X1061306Y507763D01*
X1061256Y507880D01*
X1061198Y507996D01*
X1061131Y508121D01*
X1061048Y508238D01*
X1060956Y508354D01*
X1060848Y508463D01*
X1060839Y508471D01*
X1060823Y508488D01*
X1060789Y508513D01*
X1060740Y508554D01*
X1060681Y508596D01*
X1060606Y508646D01*
X1060523Y508704D01*
X1060431Y508754D01*
X1060323Y508813D01*
X1060206Y508863D01*
X1060073Y508913D01*
X1059940Y508954D01*
X1059790Y508996D01*
X1059632Y509021D01*
X1059465Y509037D01*
X1059290Y509046D01*
X1059190D01*
X1059124Y509037D01*
X1059032Y509029D01*
X1058932Y509013D01*
X1058824Y508996D01*
X1058699Y508971D01*
X1058574Y508938D01*
X1058440Y508896D01*
X1058307Y508846D01*
X1058165Y508788D01*
X1058032Y508713D01*
X1057899Y508629D01*
X1057766Y508538D01*
X1057649Y508429D01*
X1057641Y508421D01*
X1057624Y508404D01*
X1057591Y508363D01*
X1057557Y508321D01*
X1057508Y508254D01*
X1057458Y508180D01*
X1057399Y508088D01*
X1057349Y507988D01*
X1057291Y507880D01*
X1057233Y507746D01*
X1057183Y507613D01*
X1057133Y507463D01*
X1057099Y507297D01*
X1057066Y507122D01*
X1057049Y506938D01*
X1057041Y506738D01*
X1055583Y506888D01*
Y506897D01*
Y506905D01*
X1055591Y506930D01*
Y506963D01*
X1055600Y507047D01*
X1055625Y507155D01*
X1055650Y507288D01*
X1055683Y507446D01*
X1055725Y507621D01*
X1055775Y507805D01*
X1055842Y508005D01*
X1055916Y508205D01*
X1056008Y508413D01*
X1056116Y508621D01*
X1056233Y508821D01*
X1056375Y509013D01*
X1056524Y509196D01*
X1056699Y509362D01*
X1056708Y509371D01*
X1056741Y509396D01*
X1056799Y509446D01*
X1056874Y509496D01*
X1056974Y509562D01*
X1057091Y509637D01*
X1057233Y509712D01*
X1057391Y509796D01*
X1057574Y509870D01*
X1057766Y509945D01*
X1057982Y510020D01*
X1058216Y510087D01*
X1058465Y510145D01*
X1058732Y510187D01*
X1059015Y510212D01*
X1059315Y510220D01*
X1059390D01*
X1059473Y510212D01*
D02*
G37*
G36*
X1050614Y502707D02*
X1052172D01*
Y501407D01*
X1050614D01*
Y498650D01*
X1049198D01*
Y501407D01*
X1044200D01*
Y502707D01*
X1049456Y510179D01*
X1050614D01*
Y502707D01*
D02*
G37*
G36*
X1040106Y508871D02*
X1035491D01*
X1034874Y505764D01*
X1034883Y505772D01*
X1034924Y505797D01*
X1034974Y505830D01*
X1035058Y505880D01*
X1035149Y505930D01*
X1035257Y505997D01*
X1035391Y506055D01*
X1035532Y506130D01*
X1035691Y506197D01*
X1035857Y506264D01*
X1036040Y506322D01*
X1036224Y506372D01*
X1036424Y506422D01*
X1036624Y506455D01*
X1036840Y506480D01*
X1037048Y506489D01*
X1037115D01*
X1037198Y506480D01*
X1037298Y506472D01*
X1037432Y506455D01*
X1037582Y506430D01*
X1037756Y506397D01*
X1037940Y506355D01*
X1038131Y506305D01*
X1038340Y506230D01*
X1038548Y506147D01*
X1038764Y506047D01*
X1038981Y505922D01*
X1039198Y505789D01*
X1039406Y505622D01*
X1039606Y505439D01*
X1039614Y505431D01*
X1039647Y505389D01*
X1039706Y505331D01*
X1039772Y505247D01*
X1039847Y505147D01*
X1039939Y505022D01*
X1040030Y504873D01*
X1040131Y504706D01*
X1040222Y504523D01*
X1040314Y504323D01*
X1040405Y504098D01*
X1040489Y503865D01*
X1040547Y503606D01*
X1040605Y503332D01*
X1040639Y503048D01*
X1040647Y502748D01*
Y502740D01*
Y502732D01*
Y502707D01*
Y502682D01*
X1040639Y502598D01*
X1040630Y502490D01*
X1040622Y502349D01*
X1040597Y502190D01*
X1040572Y502015D01*
X1040530Y501824D01*
X1040480Y501615D01*
X1040422Y501399D01*
X1040347Y501174D01*
X1040264Y500949D01*
X1040156Y500716D01*
X1040030Y500491D01*
X1039889Y500266D01*
X1039731Y500049D01*
X1039714Y500033D01*
X1039681Y499991D01*
X1039614Y499925D01*
X1039531Y499833D01*
X1039414Y499725D01*
X1039281Y499608D01*
X1039123Y499483D01*
X1038939Y499350D01*
X1038731Y499216D01*
X1038506Y499091D01*
X1038256Y498975D01*
X1037981Y498867D01*
X1037690Y498783D01*
X1037382Y498708D01*
X1037048Y498667D01*
X1036699Y498650D01*
X1036632D01*
X1036549Y498658D01*
X1036440Y498667D01*
X1036307Y498675D01*
X1036149Y498700D01*
X1035974Y498725D01*
X1035791Y498758D01*
X1035591Y498808D01*
X1035382Y498867D01*
X1035166Y498933D01*
X1034949Y499017D01*
X1034741Y499117D01*
X1034524Y499233D01*
X1034324Y499375D01*
X1034133Y499525D01*
X1034125Y499533D01*
X1034091Y499566D01*
X1034041Y499616D01*
X1033975Y499683D01*
X1033900Y499775D01*
X1033808Y499883D01*
X1033716Y500008D01*
X1033616Y500149D01*
X1033517Y500308D01*
X1033425Y500483D01*
X1033325Y500674D01*
X1033233Y500882D01*
X1033158Y501107D01*
X1033092Y501349D01*
X1033033Y501599D01*
X1033000Y501865D01*
X1034483Y501990D01*
Y501982D01*
X1034491Y501940D01*
X1034499Y501890D01*
X1034516Y501815D01*
X1034541Y501724D01*
X1034566Y501615D01*
X1034599Y501499D01*
X1034641Y501374D01*
X1034741Y501116D01*
X1034799Y500974D01*
X1034866Y500841D01*
X1034949Y500707D01*
X1035032Y500583D01*
X1035133Y500466D01*
X1035241Y500358D01*
X1035249Y500349D01*
X1035266Y500333D01*
X1035299Y500308D01*
X1035349Y500274D01*
X1035407Y500233D01*
X1035482Y500183D01*
X1035557Y500141D01*
X1035649Y500091D01*
X1035749Y500033D01*
X1035865Y499991D01*
X1035982Y499941D01*
X1036115Y499899D01*
X1036249Y499866D01*
X1036390Y499841D01*
X1036540Y499824D01*
X1036699Y499816D01*
X1036749D01*
X1036798Y499824D01*
X1036874D01*
X1036957Y499841D01*
X1037065Y499858D01*
X1037182Y499883D01*
X1037307Y499916D01*
X1037440Y499950D01*
X1037582Y500000D01*
X1037723Y500066D01*
X1037873Y500141D01*
X1038015Y500224D01*
X1038165Y500333D01*
X1038306Y500449D01*
X1038439Y500583D01*
X1038448Y500591D01*
X1038473Y500616D01*
X1038506Y500666D01*
X1038548Y500724D01*
X1038606Y500799D01*
X1038664Y500891D01*
X1038731Y500999D01*
X1038798Y501124D01*
X1038856Y501266D01*
X1038923Y501416D01*
X1038981Y501582D01*
X1039039Y501765D01*
X1039081Y501965D01*
X1039114Y502174D01*
X1039139Y502390D01*
X1039147Y502623D01*
Y502640D01*
Y502673D01*
X1039139Y502740D01*
Y502823D01*
X1039131Y502923D01*
X1039114Y503048D01*
X1039089Y503173D01*
X1039064Y503323D01*
X1039023Y503473D01*
X1038981Y503623D01*
X1038923Y503781D01*
X1038856Y503948D01*
X1038781Y504106D01*
X1038689Y504256D01*
X1038581Y504406D01*
X1038465Y504539D01*
X1038456Y504548D01*
X1038431Y504573D01*
X1038398Y504606D01*
X1038340Y504648D01*
X1038273Y504706D01*
X1038190Y504764D01*
X1038098Y504822D01*
X1037990Y504889D01*
X1037865Y504956D01*
X1037731Y505014D01*
X1037590Y505081D01*
X1037432Y505131D01*
X1037257Y505172D01*
X1037073Y505206D01*
X1036882Y505231D01*
X1036682Y505239D01*
X1036615D01*
X1036565Y505231D01*
X1036507D01*
X1036432Y505222D01*
X1036357Y505214D01*
X1036265Y505197D01*
X1036074Y505164D01*
X1035865Y505106D01*
X1035649Y505031D01*
X1035441Y504922D01*
X1035432D01*
X1035416Y504906D01*
X1035391Y504889D01*
X1035349Y504864D01*
X1035249Y504798D01*
X1035124Y504706D01*
X1034991Y504589D01*
X1034849Y504456D01*
X1034708Y504298D01*
X1034583Y504123D01*
X1033250Y504298D01*
X1034366Y510220D01*
X1040106D01*
Y508871D01*
D02*
G37*
G36*
X1023916Y498650D02*
X1022500D01*
Y510179D01*
X1023916D01*
Y498650D01*
D02*
G37*
G36*
X1014707Y507363D02*
X1014823Y507355D01*
X1014973Y507338D01*
X1015131Y507313D01*
X1015315Y507280D01*
X1015515Y507230D01*
X1015731Y507172D01*
X1015948Y507097D01*
X1016181Y507005D01*
X1016406Y506888D01*
X1016639Y506763D01*
X1016856Y506605D01*
X1017072Y506430D01*
X1017281Y506230D01*
X1017289Y506214D01*
X1017331Y506180D01*
X1017381Y506114D01*
X1017447Y506022D01*
X1017531Y505905D01*
X1017622Y505764D01*
X1017714Y505597D01*
X1017814Y505406D01*
X1017914Y505189D01*
X1018014Y504948D01*
X1018097Y504681D01*
X1018180Y504398D01*
X1018247Y504089D01*
X1018305Y503756D01*
X1018339Y503398D01*
X1018347Y503023D01*
Y503015D01*
Y502998D01*
Y502973D01*
Y502932D01*
Y502873D01*
Y502815D01*
X1018339Y502740D01*
Y502648D01*
X1012108D01*
Y502632D01*
X1012116Y502590D01*
Y502515D01*
X1012133Y502423D01*
X1012149Y502307D01*
X1012166Y502174D01*
X1012199Y502032D01*
X1012233Y501874D01*
X1012274Y501699D01*
X1012333Y501532D01*
X1012391Y501357D01*
X1012466Y501182D01*
X1012549Y501007D01*
X1012649Y500841D01*
X1012757Y500682D01*
X1012882Y500541D01*
X1012891Y500533D01*
X1012916Y500508D01*
X1012957Y500474D01*
X1013007Y500424D01*
X1013074Y500374D01*
X1013157Y500316D01*
X1013257Y500249D01*
X1013366Y500183D01*
X1013482Y500108D01*
X1013616Y500049D01*
X1013757Y499983D01*
X1013915Y499933D01*
X1014082Y499883D01*
X1014257Y499850D01*
X1014440Y499824D01*
X1014632Y499816D01*
X1014707D01*
X1014765Y499824D01*
X1014832Y499833D01*
X1014907Y499841D01*
X1014998Y499850D01*
X1015090Y499866D01*
X1015298Y499916D01*
X1015523Y499991D01*
X1015640Y500033D01*
X1015748Y500091D01*
X1015856Y500149D01*
X1015965Y500224D01*
X1015973Y500233D01*
X1015989Y500241D01*
X1016014Y500266D01*
X1016056Y500299D01*
X1016106Y500349D01*
X1016156Y500399D01*
X1016214Y500466D01*
X1016281Y500541D01*
X1016348Y500632D01*
X1016423Y500724D01*
X1016489Y500833D01*
X1016564Y500949D01*
X1016639Y501082D01*
X1016706Y501224D01*
X1016773Y501374D01*
X1016839Y501541D01*
X1018297Y501349D01*
Y501332D01*
X1018280Y501291D01*
X1018255Y501224D01*
X1018230Y501141D01*
X1018189Y501032D01*
X1018139Y500907D01*
X1018080Y500766D01*
X1018005Y500616D01*
X1017922Y500466D01*
X1017830Y500299D01*
X1017722Y500133D01*
X1017606Y499966D01*
X1017481Y499808D01*
X1017339Y499650D01*
X1017181Y499500D01*
X1017014Y499358D01*
X1017006Y499350D01*
X1016973Y499325D01*
X1016922Y499291D01*
X1016848Y499250D01*
X1016756Y499191D01*
X1016639Y499133D01*
X1016514Y499066D01*
X1016364Y499008D01*
X1016198Y498942D01*
X1016023Y498875D01*
X1015823Y498817D01*
X1015615Y498758D01*
X1015390Y498717D01*
X1015148Y498683D01*
X1014890Y498658D01*
X1014623Y498650D01*
X1014540D01*
X1014499Y498658D01*
X1014449D01*
X1014324Y498667D01*
X1014165Y498683D01*
X1013990Y498708D01*
X1013790Y498742D01*
X1013574Y498792D01*
X1013349Y498850D01*
X1013107Y498925D01*
X1012866Y499017D01*
X1012624Y499125D01*
X1012383Y499250D01*
X1012149Y499400D01*
X1011924Y499575D01*
X1011716Y499775D01*
X1011708Y499791D01*
X1011675Y499824D01*
X1011616Y499891D01*
X1011550Y499983D01*
X1011466Y500099D01*
X1011383Y500241D01*
X1011283Y500399D01*
X1011183Y500591D01*
X1011083Y500808D01*
X1010991Y501041D01*
X1010900Y501299D01*
X1010817Y501582D01*
X1010750Y501890D01*
X1010700Y502215D01*
X1010658Y502565D01*
X1010650Y502940D01*
Y502948D01*
Y502965D01*
Y502990D01*
Y503032D01*
X1010658Y503082D01*
Y503140D01*
Y503206D01*
X1010667Y503290D01*
X1010683Y503465D01*
X1010708Y503665D01*
X1010742Y503890D01*
X1010783Y504140D01*
X1010842Y504389D01*
X1010917Y504656D01*
X1011000Y504931D01*
X1011108Y505206D01*
X1011233Y505472D01*
X1011375Y505730D01*
X1011541Y505980D01*
X1011733Y506205D01*
X1011750Y506222D01*
X1011783Y506255D01*
X1011841Y506314D01*
X1011933Y506389D01*
X1012041Y506480D01*
X1012166Y506572D01*
X1012316Y506680D01*
X1012491Y506788D01*
X1012683Y506897D01*
X1012899Y507005D01*
X1013124Y507105D01*
X1013374Y507188D01*
X1013649Y507263D01*
X1013932Y507322D01*
X1014232Y507355D01*
X1014548Y507372D01*
X1014623D01*
X1014707Y507363D01*
D02*
G37*
G36*
X1007739Y498833D02*
X1006423D01*
Y499891D01*
X1006414Y499874D01*
X1006389Y499841D01*
X1006339Y499775D01*
X1006273Y499700D01*
X1006189Y499600D01*
X1006089Y499500D01*
X1005964Y499383D01*
X1005831Y499275D01*
X1005673Y499158D01*
X1005498Y499042D01*
X1005306Y498942D01*
X1005098Y498842D01*
X1004873Y498767D01*
X1004623Y498700D01*
X1004365Y498667D01*
X1004082Y498650D01*
X1003982D01*
X1003915Y498658D01*
X1003824Y498667D01*
X1003724Y498683D01*
X1003607Y498700D01*
X1003482Y498717D01*
X1003341Y498750D01*
X1003199Y498783D01*
X1003049Y498825D01*
X1002891Y498883D01*
X1002732Y498942D01*
X1002566Y499017D01*
X1002408Y499100D01*
X1002249Y499200D01*
X1002241Y499208D01*
X1002216Y499225D01*
X1002166Y499258D01*
X1002116Y499300D01*
X1002041Y499358D01*
X1001958Y499425D01*
X1001875Y499508D01*
X1001775Y499600D01*
X1001674Y499700D01*
X1001566Y499816D01*
X1001458Y499941D01*
X1001350Y500083D01*
X1001250Y500224D01*
X1001141Y500383D01*
X1001050Y500558D01*
X1000958Y500733D01*
X1000950Y500741D01*
X1000941Y500774D01*
X1000916Y500833D01*
X1000883Y500907D01*
X1000850Y500999D01*
X1000817Y501107D01*
X1000775Y501241D01*
X1000733Y501382D01*
X1000683Y501541D01*
X1000642Y501715D01*
X1000608Y501907D01*
X1000575Y502107D01*
X1000542Y502315D01*
X1000517Y502532D01*
X1000508Y502765D01*
X1000500Y502998D01*
Y503015D01*
Y503057D01*
Y503123D01*
X1000508Y503206D01*
X1000517Y503323D01*
X1000525Y503448D01*
X1000533Y503590D01*
X1000550Y503748D01*
X1000575Y503923D01*
X1000600Y504098D01*
X1000675Y504481D01*
X1000717Y504681D01*
X1000775Y504873D01*
X1000833Y505072D01*
X1000908Y505264D01*
X1000916Y505272D01*
X1000925Y505306D01*
X1000950Y505364D01*
X1000983Y505431D01*
X1001033Y505514D01*
X1001083Y505614D01*
X1001150Y505722D01*
X1001225Y505839D01*
X1001300Y505964D01*
X1001400Y506089D01*
X1001500Y506222D01*
X1001608Y506347D01*
X1001733Y506480D01*
X1001866Y506597D01*
X1002008Y506713D01*
X1002158Y506822D01*
X1002166Y506830D01*
X1002199Y506847D01*
X1002241Y506872D01*
X1002308Y506905D01*
X1002383Y506947D01*
X1002474Y506997D01*
X1002582Y507047D01*
X1002699Y507097D01*
X1002832Y507147D01*
X1002974Y507197D01*
X1003132Y507247D01*
X1003291Y507288D01*
X1003465Y507322D01*
X1003640Y507346D01*
X1003824Y507363D01*
X1004015Y507372D01*
X1004090D01*
X1004140Y507363D01*
X1004207D01*
X1004290Y507355D01*
X1004373Y507346D01*
X1004465Y507330D01*
X1004673Y507297D01*
X1004898Y507238D01*
X1005132Y507155D01*
X1005356Y507047D01*
X1005365D01*
X1005381Y507030D01*
X1005415Y507013D01*
X1005456Y506988D01*
X1005506Y506955D01*
X1005565Y506922D01*
X1005698Y506822D01*
X1005856Y506705D01*
X1006015Y506564D01*
X1006173Y506397D01*
X1006323Y506214D01*
Y510362D01*
X1007739D01*
Y498833D01*
D02*
G37*
G36*
X993973Y507363D02*
X994090Y507355D01*
X994240Y507338D01*
X994407Y507313D01*
X994598Y507280D01*
X994806Y507230D01*
X995023Y507172D01*
X995256Y507097D01*
X995489Y507005D01*
X995723Y506897D01*
X995956Y506763D01*
X996189Y506613D01*
X996414Y506439D01*
X996622Y506239D01*
X996639Y506222D01*
X996672Y506189D01*
X996722Y506122D01*
X996797Y506030D01*
X996881Y505914D01*
X996972Y505781D01*
X997072Y505614D01*
X997172Y505431D01*
X997272Y505214D01*
X997372Y504981D01*
X997464Y504731D01*
X997547Y504448D01*
X997622Y504148D01*
X997672Y503831D01*
X997713Y503490D01*
X997722Y503123D01*
Y503115D01*
Y503106D01*
Y503082D01*
Y503057D01*
Y502965D01*
X997713Y502857D01*
X997705Y502723D01*
X997697Y502565D01*
X997680Y502390D01*
X997664Y502207D01*
X997639Y502007D01*
X997605Y501799D01*
X997564Y501590D01*
X997514Y501374D01*
X997455Y501166D01*
X997397Y500966D01*
X997314Y500774D01*
X997230Y500591D01*
X997222Y500583D01*
X997205Y500549D01*
X997180Y500499D01*
X997139Y500441D01*
X997089Y500358D01*
X997031Y500274D01*
X996955Y500174D01*
X996872Y500066D01*
X996781Y499950D01*
X996672Y499833D01*
X996556Y499716D01*
X996431Y499600D01*
X996297Y499483D01*
X996148Y499366D01*
X995989Y499258D01*
X995823Y499158D01*
X995814Y499150D01*
X995781Y499133D01*
X995731Y499108D01*
X995664Y499083D01*
X995573Y499042D01*
X995473Y499000D01*
X995356Y498950D01*
X995231Y498908D01*
X995081Y498858D01*
X994931Y498808D01*
X994765Y498767D01*
X994590Y498733D01*
X994398Y498700D01*
X994207Y498675D01*
X994015Y498658D01*
X993807Y498650D01*
X993732D01*
X993690Y498658D01*
X993640D01*
X993515Y498667D01*
X993365Y498683D01*
X993199Y498708D01*
X993007Y498742D01*
X992799Y498792D01*
X992574Y498850D01*
X992349Y498925D01*
X992107Y499017D01*
X991874Y499125D01*
X991641Y499250D01*
X991408Y499400D01*
X991183Y499566D01*
X990975Y499766D01*
X990966Y499783D01*
X990925Y499816D01*
X990875Y499883D01*
X990808Y499974D01*
X990725Y500091D01*
X990633Y500233D01*
X990541Y500399D01*
X990442Y500591D01*
X990341Y500808D01*
X990242Y501049D01*
X990150Y501316D01*
X990067Y501607D01*
X990000Y501924D01*
X989950Y502257D01*
X989908Y502623D01*
X989900Y503007D01*
Y503015D01*
Y503032D01*
Y503065D01*
Y503106D01*
X989908Y503165D01*
Y503231D01*
X989917Y503306D01*
Y503390D01*
X989925Y503481D01*
X989942Y503581D01*
X989967Y503798D01*
X990008Y504039D01*
X990058Y504306D01*
X990125Y504581D01*
X990217Y504864D01*
X990316Y505147D01*
X990442Y505431D01*
X990591Y505705D01*
X990758Y505972D01*
X990958Y506214D01*
X991183Y506439D01*
X991199Y506447D01*
X991233Y506480D01*
X991291Y506522D01*
X991374Y506589D01*
X991483Y506655D01*
X991608Y506730D01*
X991749Y506822D01*
X991916Y506905D01*
X992099Y506988D01*
X992299Y507080D01*
X992516Y507155D01*
X992749Y507230D01*
X992990Y507288D01*
X993249Y507330D01*
X993524Y507363D01*
X993807Y507372D01*
X993923D01*
X993973Y507363D01*
D02*
G37*
G36*
X986112Y498650D02*
X984638D01*
Y508296D01*
X981281Y498650D01*
X979898D01*
X976574Y508463D01*
Y498650D01*
X975100D01*
Y510179D01*
X977391D01*
X980123Y502015D01*
X980131Y501999D01*
X980140Y501965D01*
X980156Y501907D01*
X980181Y501832D01*
X980215Y501732D01*
X980248Y501624D01*
X980290Y501507D01*
X980331Y501374D01*
X980423Y501099D01*
X980515Y500816D01*
X980556Y500674D01*
X980598Y500541D01*
X980639Y500424D01*
X980673Y500308D01*
Y500316D01*
X980681Y500341D01*
X980698Y500374D01*
X980714Y500424D01*
X980731Y500491D01*
X980756Y500574D01*
X980789Y500666D01*
X980823Y500774D01*
X980864Y500899D01*
X980914Y501032D01*
X980964Y501182D01*
X981014Y501349D01*
X981081Y501532D01*
X981139Y501724D01*
X981214Y501932D01*
X981289Y502157D01*
X984055Y510179D01*
X986112D01*
Y498650D01*
D02*
G37*
G36*
X1077564Y529212D02*
X1077555Y529195D01*
X1077514Y529162D01*
X1077455Y529087D01*
X1077372Y528995D01*
X1077272Y528878D01*
X1077155Y528737D01*
X1077022Y528570D01*
X1076881Y528379D01*
X1076722Y528170D01*
X1076547Y527937D01*
X1076364Y527679D01*
X1076181Y527404D01*
X1075981Y527104D01*
X1075789Y526788D01*
X1075581Y526454D01*
X1075381Y526096D01*
Y526088D01*
X1075373Y526071D01*
X1075356Y526046D01*
X1075331Y526013D01*
X1075306Y525963D01*
X1075281Y525905D01*
X1075240Y525838D01*
X1075206Y525763D01*
X1075156Y525680D01*
X1075115Y525580D01*
X1075006Y525372D01*
X1074890Y525138D01*
X1074765Y524872D01*
X1074632Y524580D01*
X1074498Y524264D01*
X1074357Y523939D01*
X1074223Y523589D01*
X1074082Y523231D01*
X1073957Y522864D01*
X1073832Y522481D01*
X1073715Y522098D01*
X1073707Y522081D01*
X1073699Y522031D01*
X1073674Y521956D01*
X1073649Y521848D01*
X1073615Y521706D01*
X1073574Y521548D01*
X1073532Y521365D01*
X1073490Y521157D01*
X1073440Y520932D01*
X1073399Y520690D01*
X1073349Y520424D01*
X1073307Y520149D01*
X1073265Y519865D01*
X1073232Y519565D01*
X1073199Y519249D01*
X1073174Y518932D01*
X1071716D01*
Y518949D01*
Y518991D01*
X1071724Y519074D01*
Y519174D01*
X1071733Y519307D01*
X1071749Y519465D01*
X1071766Y519649D01*
X1071791Y519849D01*
X1071816Y520082D01*
X1071849Y520332D01*
X1071891Y520598D01*
X1071941Y520890D01*
X1072008Y521198D01*
X1072074Y521523D01*
X1072149Y521865D01*
X1072241Y522214D01*
Y522223D01*
X1072249Y522239D01*
X1072258Y522264D01*
X1072266Y522298D01*
X1072282Y522348D01*
X1072299Y522406D01*
X1072316Y522473D01*
X1072341Y522548D01*
X1072391Y522714D01*
X1072457Y522923D01*
X1072532Y523147D01*
X1072616Y523406D01*
X1072716Y523680D01*
X1072824Y523972D01*
X1072949Y524280D01*
X1073074Y524597D01*
X1073215Y524922D01*
X1073374Y525255D01*
X1073532Y525596D01*
X1073707Y525930D01*
Y525938D01*
X1073715Y525946D01*
X1073732Y525971D01*
X1073748Y526013D01*
X1073773Y526054D01*
X1073807Y526104D01*
X1073874Y526229D01*
X1073965Y526379D01*
X1074065Y526563D01*
X1074190Y526763D01*
X1074323Y526979D01*
X1074465Y527212D01*
X1074623Y527454D01*
X1074798Y527704D01*
X1074973Y527962D01*
X1075348Y528470D01*
X1075548Y528720D01*
X1075748Y528953D01*
X1070100D01*
Y530311D01*
X1077564D01*
Y529212D01*
D02*
G37*
G36*
X1067897D02*
X1067889Y529195D01*
X1067847Y529162D01*
X1067789Y529087D01*
X1067705Y528995D01*
X1067605Y528878D01*
X1067489Y528737D01*
X1067356Y528570D01*
X1067214Y528379D01*
X1067056Y528170D01*
X1066881Y527937D01*
X1066698Y527679D01*
X1066514Y527404D01*
X1066314Y527104D01*
X1066123Y526788D01*
X1065915Y526454D01*
X1065714Y526096D01*
Y526088D01*
X1065706Y526071D01*
X1065690Y526046D01*
X1065665Y526013D01*
X1065640Y525963D01*
X1065615Y525905D01*
X1065573Y525838D01*
X1065540Y525763D01*
X1065490Y525680D01*
X1065448Y525580D01*
X1065340Y525372D01*
X1065223Y525138D01*
X1065098Y524872D01*
X1064965Y524580D01*
X1064832Y524264D01*
X1064690Y523939D01*
X1064557Y523589D01*
X1064415Y523231D01*
X1064290Y522864D01*
X1064165Y522481D01*
X1064048Y522098D01*
X1064040Y522081D01*
X1064032Y522031D01*
X1064007Y521956D01*
X1063982Y521848D01*
X1063949Y521706D01*
X1063907Y521548D01*
X1063865Y521365D01*
X1063824Y521157D01*
X1063774Y520932D01*
X1063732Y520690D01*
X1063682Y520424D01*
X1063640Y520149D01*
X1063599Y519865D01*
X1063565Y519565D01*
X1063532Y519249D01*
X1063507Y518932D01*
X1062049D01*
Y518949D01*
Y518991D01*
X1062058Y519074D01*
Y519174D01*
X1062066Y519307D01*
X1062083Y519465D01*
X1062099Y519649D01*
X1062124Y519849D01*
X1062149Y520082D01*
X1062183Y520332D01*
X1062224Y520598D01*
X1062274Y520890D01*
X1062341Y521198D01*
X1062407Y521523D01*
X1062482Y521865D01*
X1062574Y522214D01*
Y522223D01*
X1062582Y522239D01*
X1062591Y522264D01*
X1062599Y522298D01*
X1062616Y522348D01*
X1062632Y522406D01*
X1062649Y522473D01*
X1062674Y522548D01*
X1062724Y522714D01*
X1062791Y522923D01*
X1062866Y523147D01*
X1062949Y523406D01*
X1063049Y523680D01*
X1063157Y523972D01*
X1063282Y524280D01*
X1063407Y524597D01*
X1063549Y524922D01*
X1063707Y525255D01*
X1063865Y525596D01*
X1064040Y525930D01*
Y525938D01*
X1064048Y525946D01*
X1064065Y525971D01*
X1064082Y526013D01*
X1064107Y526054D01*
X1064140Y526104D01*
X1064207Y526229D01*
X1064298Y526379D01*
X1064398Y526563D01*
X1064523Y526763D01*
X1064657Y526979D01*
X1064798Y527212D01*
X1064956Y527454D01*
X1065131Y527704D01*
X1065306Y527962D01*
X1065681Y528470D01*
X1065881Y528720D01*
X1066081Y528953D01*
X1060433D01*
Y530311D01*
X1067897D01*
Y529212D01*
D02*
G37*
G36*
X1053715Y530303D02*
X1053815Y530295D01*
X1053932Y530278D01*
X1054057Y530261D01*
X1054198Y530236D01*
X1054357Y530203D01*
X1054515Y530161D01*
X1054690Y530111D01*
X1054865Y530053D01*
X1055040Y529986D01*
X1055223Y529903D01*
X1055398Y529811D01*
X1055573Y529703D01*
X1055581Y529695D01*
X1055614Y529678D01*
X1055664Y529636D01*
X1055723Y529595D01*
X1055806Y529528D01*
X1055898Y529453D01*
X1055989Y529361D01*
X1056098Y529262D01*
X1056214Y529145D01*
X1056331Y529012D01*
X1056447Y528870D01*
X1056564Y528712D01*
X1056681Y528545D01*
X1056789Y528370D01*
X1056897Y528179D01*
X1056989Y527970D01*
X1056997Y527954D01*
X1057014Y527920D01*
X1057030Y527854D01*
X1057064Y527762D01*
X1057106Y527646D01*
X1057147Y527504D01*
X1057189Y527337D01*
X1057239Y527146D01*
X1057280Y526929D01*
X1057322Y526688D01*
X1057364Y526429D01*
X1057405Y526138D01*
X1057439Y525821D01*
X1057455Y525488D01*
X1057472Y525122D01*
X1057480Y524738D01*
Y524730D01*
Y524713D01*
Y524680D01*
Y524638D01*
Y524588D01*
Y524530D01*
X1057472Y524455D01*
Y524372D01*
Y524280D01*
X1057464Y524189D01*
X1057455Y523972D01*
X1057439Y523731D01*
X1057422Y523472D01*
X1057397Y523197D01*
X1057364Y522914D01*
X1057322Y522614D01*
X1057280Y522323D01*
X1057222Y522031D01*
X1057155Y521748D01*
X1057080Y521481D01*
X1056997Y521223D01*
X1056989Y521207D01*
X1056972Y521165D01*
X1056947Y521098D01*
X1056905Y521007D01*
X1056856Y520898D01*
X1056797Y520773D01*
X1056722Y520632D01*
X1056639Y520482D01*
X1056539Y520324D01*
X1056439Y520165D01*
X1056314Y519999D01*
X1056189Y519832D01*
X1056048Y519674D01*
X1055898Y519516D01*
X1055739Y519366D01*
X1055564Y519232D01*
X1055556Y519224D01*
X1055523Y519207D01*
X1055473Y519166D01*
X1055398Y519124D01*
X1055306Y519074D01*
X1055198Y519016D01*
X1055073Y518957D01*
X1054931Y518891D01*
X1054781Y518824D01*
X1054607Y518766D01*
X1054432Y518708D01*
X1054232Y518657D01*
X1054023Y518616D01*
X1053807Y518582D01*
X1053582Y518558D01*
X1053349Y518549D01*
X1053290D01*
X1053215Y518558D01*
X1053124D01*
X1053007Y518574D01*
X1052874Y518591D01*
X1052724Y518616D01*
X1052566Y518641D01*
X1052391Y518682D01*
X1052207Y518733D01*
X1052024Y518791D01*
X1051841Y518866D01*
X1051658Y518949D01*
X1051474Y519049D01*
X1051299Y519166D01*
X1051133Y519299D01*
X1051124Y519307D01*
X1051099Y519332D01*
X1051050Y519374D01*
X1051000Y519441D01*
X1050933Y519516D01*
X1050850Y519607D01*
X1050766Y519715D01*
X1050683Y519849D01*
X1050591Y519990D01*
X1050508Y520149D01*
X1050416Y520315D01*
X1050342Y520507D01*
X1050266Y520715D01*
X1050200Y520932D01*
X1050150Y521165D01*
X1050108Y521415D01*
X1051466Y521540D01*
Y521531D01*
X1051474Y521498D01*
X1051483Y521448D01*
X1051499Y521381D01*
X1051516Y521306D01*
X1051541Y521215D01*
X1051574Y521106D01*
X1051608Y521007D01*
X1051699Y520773D01*
X1051816Y520540D01*
X1051958Y520324D01*
X1052032Y520224D01*
X1052124Y520140D01*
X1052132Y520132D01*
X1052149Y520124D01*
X1052174Y520099D01*
X1052216Y520074D01*
X1052257Y520040D01*
X1052316Y520007D01*
X1052391Y519965D01*
X1052466Y519932D01*
X1052549Y519890D01*
X1052649Y519849D01*
X1052857Y519782D01*
X1053099Y519732D01*
X1053232Y519724D01*
X1053374Y519715D01*
X1053440D01*
X1053482Y519724D01*
X1053540D01*
X1053607Y519732D01*
X1053765Y519749D01*
X1053940Y519790D01*
X1054140Y519840D01*
X1054332Y519907D01*
X1054523Y520007D01*
X1054531D01*
X1054548Y520024D01*
X1054573Y520040D01*
X1054607Y520065D01*
X1054698Y520132D01*
X1054806Y520224D01*
X1054931Y520332D01*
X1055065Y520473D01*
X1055198Y520632D01*
X1055323Y520807D01*
Y520815D01*
X1055340Y520832D01*
X1055356Y520857D01*
X1055373Y520898D01*
X1055406Y520948D01*
X1055431Y521007D01*
X1055473Y521081D01*
X1055506Y521165D01*
X1055548Y521256D01*
X1055589Y521356D01*
X1055631Y521465D01*
X1055681Y521581D01*
X1055723Y521715D01*
X1055764Y521848D01*
X1055806Y521998D01*
X1055848Y522148D01*
Y522156D01*
X1055856Y522189D01*
X1055864Y522231D01*
X1055881Y522298D01*
X1055898Y522373D01*
X1055914Y522464D01*
X1055939Y522564D01*
X1055956Y522681D01*
X1055973Y522806D01*
X1055998Y522948D01*
X1056031Y523239D01*
X1056056Y523556D01*
X1056064Y523880D01*
Y523889D01*
Y523897D01*
Y523922D01*
Y523947D01*
Y523989D01*
Y524039D01*
Y524097D01*
Y524164D01*
X1056056Y524155D01*
X1056048Y524130D01*
X1056023Y524097D01*
X1055989Y524047D01*
X1055939Y523989D01*
X1055889Y523922D01*
X1055831Y523847D01*
X1055756Y523772D01*
X1055681Y523680D01*
X1055589Y523597D01*
X1055498Y523506D01*
X1055389Y523414D01*
X1055165Y523231D01*
X1054898Y523064D01*
X1054890Y523056D01*
X1054865Y523047D01*
X1054823Y523022D01*
X1054773Y522997D01*
X1054698Y522964D01*
X1054623Y522931D01*
X1054531Y522897D01*
X1054423Y522856D01*
X1054307Y522814D01*
X1054190Y522781D01*
X1053915Y522714D01*
X1053623Y522664D01*
X1053465Y522656D01*
X1053307Y522648D01*
X1053240D01*
X1053165Y522656D01*
X1053065Y522664D01*
X1052949Y522681D01*
X1052799Y522706D01*
X1052641Y522731D01*
X1052466Y522781D01*
X1052282Y522831D01*
X1052083Y522897D01*
X1051882Y522981D01*
X1051683Y523081D01*
X1051474Y523206D01*
X1051274Y523339D01*
X1051075Y523497D01*
X1050883Y523680D01*
X1050875Y523689D01*
X1050841Y523731D01*
X1050791Y523789D01*
X1050733Y523872D01*
X1050658Y523972D01*
X1050575Y524097D01*
X1050483Y524247D01*
X1050391Y524413D01*
X1050300Y524597D01*
X1050208Y524805D01*
X1050125Y525030D01*
X1050050Y525272D01*
X1049992Y525530D01*
X1049942Y525813D01*
X1049908Y526104D01*
X1049900Y526413D01*
Y526421D01*
Y526429D01*
Y526454D01*
Y526488D01*
X1049908Y526529D01*
Y526579D01*
X1049917Y526704D01*
X1049933Y526854D01*
X1049958Y527029D01*
X1049983Y527221D01*
X1050033Y527429D01*
X1050083Y527646D01*
X1050150Y527879D01*
X1050233Y528112D01*
X1050333Y528345D01*
X1050458Y528579D01*
X1050591Y528812D01*
X1050750Y529028D01*
X1050933Y529237D01*
X1050941Y529245D01*
X1050983Y529287D01*
X1051041Y529337D01*
X1051116Y529403D01*
X1051216Y529487D01*
X1051341Y529578D01*
X1051483Y529678D01*
X1051641Y529778D01*
X1051824Y529878D01*
X1052016Y529970D01*
X1052232Y530061D01*
X1052466Y530145D01*
X1052707Y530211D01*
X1052965Y530261D01*
X1053240Y530303D01*
X1053524Y530311D01*
X1053632D01*
X1053715Y530303D01*
D02*
G37*
G36*
X1045348Y518741D02*
X1043932D01*
Y527754D01*
X1043924Y527745D01*
X1043907Y527729D01*
X1043882Y527704D01*
X1043841Y527671D01*
X1043791Y527629D01*
X1043724Y527571D01*
X1043649Y527512D01*
X1043574Y527446D01*
X1043474Y527379D01*
X1043374Y527296D01*
X1043266Y527221D01*
X1043149Y527129D01*
X1043016Y527046D01*
X1042883Y526954D01*
X1042583Y526771D01*
X1042574Y526763D01*
X1042549Y526746D01*
X1042499Y526721D01*
X1042441Y526696D01*
X1042375Y526654D01*
X1042291Y526604D01*
X1042191Y526554D01*
X1042091Y526496D01*
X1041858Y526379D01*
X1041608Y526263D01*
X1041350Y526146D01*
X1041100Y526046D01*
Y527412D01*
X1041117Y527421D01*
X1041150Y527437D01*
X1041217Y527471D01*
X1041300Y527512D01*
X1041400Y527562D01*
X1041525Y527629D01*
X1041658Y527704D01*
X1041800Y527787D01*
X1041958Y527887D01*
X1042125Y527987D01*
X1042474Y528220D01*
X1042833Y528479D01*
X1043174Y528762D01*
X1043182Y528770D01*
X1043216Y528795D01*
X1043258Y528837D01*
X1043316Y528895D01*
X1043391Y528970D01*
X1043474Y529053D01*
X1043566Y529153D01*
X1043666Y529253D01*
X1043766Y529370D01*
X1043874Y529495D01*
X1044082Y529753D01*
X1044274Y530028D01*
X1044357Y530170D01*
X1044432Y530311D01*
X1045348D01*
Y518741D01*
D02*
G37*
G36*
X1005324Y519200D02*
X1003800D01*
Y530729D01*
X1005324D01*
Y519200D01*
D02*
G37*
G36*
X993998Y530720D02*
X994106D01*
X994240Y530704D01*
X994381Y530695D01*
X994548Y530679D01*
X994715Y530654D01*
X994898Y530629D01*
X995273Y530554D01*
X995473Y530504D01*
X995664Y530454D01*
X995856Y530387D01*
X996039Y530312D01*
X996047Y530304D01*
X996081Y530296D01*
X996131Y530271D01*
X996197Y530237D01*
X996280Y530196D01*
X996372Y530137D01*
X996480Y530079D01*
X996589Y530004D01*
X996714Y529929D01*
X996830Y529837D01*
X996955Y529737D01*
X997080Y529629D01*
X997205Y529513D01*
X997322Y529379D01*
X997438Y529246D01*
X997538Y529096D01*
X997547Y529088D01*
X997563Y529063D01*
X997588Y529013D01*
X997622Y528954D01*
X997663Y528879D01*
X997713Y528788D01*
X997755Y528688D01*
X997813Y528571D01*
X997863Y528446D01*
X997913Y528305D01*
X997963Y528155D01*
X998005Y527996D01*
X998046Y527830D01*
X998080Y527655D01*
X998096Y527472D01*
X998113Y527288D01*
X996647Y527180D01*
Y527197D01*
X996639Y527230D01*
X996630Y527288D01*
X996614Y527363D01*
X996597Y527447D01*
X996572Y527555D01*
X996539Y527672D01*
X996497Y527797D01*
X996455Y527930D01*
X996397Y528063D01*
X996331Y528196D01*
X996256Y528338D01*
X996172Y528471D01*
X996072Y528596D01*
X995964Y528721D01*
X995847Y528829D01*
X995839Y528838D01*
X995814Y528855D01*
X995781Y528879D01*
X995722Y528921D01*
X995648Y528963D01*
X995564Y529004D01*
X995464Y529054D01*
X995348Y529113D01*
X995214Y529163D01*
X995064Y529213D01*
X994898Y529254D01*
X994723Y529304D01*
X994523Y529338D01*
X994315Y529363D01*
X994090Y529379D01*
X993848Y529388D01*
X993715D01*
X993623Y529379D01*
X993507Y529371D01*
X993382Y529363D01*
X993232Y529346D01*
X993082Y529321D01*
X992749Y529263D01*
X992582Y529221D01*
X992415Y529171D01*
X992257Y529113D01*
X992099Y529046D01*
X991957Y528971D01*
X991832Y528879D01*
X991824Y528871D01*
X991807Y528855D01*
X991774Y528829D01*
X991732Y528788D01*
X991691Y528738D01*
X991632Y528680D01*
X991582Y528613D01*
X991524Y528538D01*
X991466Y528455D01*
X991407Y528355D01*
X991308Y528146D01*
X991266Y528038D01*
X991233Y527913D01*
X991216Y527788D01*
X991208Y527655D01*
Y527647D01*
Y527630D01*
Y527597D01*
X991216Y527555D01*
X991224Y527497D01*
X991233Y527438D01*
X991266Y527297D01*
X991316Y527130D01*
X991391Y526964D01*
X991441Y526872D01*
X991508Y526789D01*
X991574Y526705D01*
X991649Y526630D01*
X991657Y526622D01*
X991674Y526614D01*
X991699Y526589D01*
X991749Y526564D01*
X991807Y526522D01*
X991891Y526480D01*
X991982Y526430D01*
X992099Y526372D01*
X992241Y526314D01*
X992399Y526247D01*
X992590Y526181D01*
X992799Y526106D01*
X993040Y526031D01*
X993307Y525956D01*
X993607Y525881D01*
X993940Y525797D01*
X993948D01*
X993965Y525789D01*
X993990D01*
X994023Y525781D01*
X994065Y525772D01*
X994115Y525756D01*
X994240Y525731D01*
X994390Y525689D01*
X994565Y525647D01*
X994756Y525606D01*
X994956Y525548D01*
X995381Y525439D01*
X995589Y525381D01*
X995797Y525314D01*
X995997Y525256D01*
X996181Y525189D01*
X996347Y525131D01*
X996489Y525073D01*
X996497Y525064D01*
X996530Y525048D01*
X996589Y525023D01*
X996655Y524989D01*
X996739Y524939D01*
X996830Y524889D01*
X996939Y524823D01*
X997055Y524748D01*
X997172Y524673D01*
X997297Y524581D01*
X997547Y524381D01*
X997780Y524148D01*
X997880Y524023D01*
X997980Y523890D01*
X997988Y523881D01*
X998005Y523856D01*
X998022Y523815D01*
X998055Y523765D01*
X998088Y523698D01*
X998130Y523615D01*
X998180Y523523D01*
X998221Y523423D01*
X998263Y523307D01*
X998313Y523182D01*
X998355Y523048D01*
X998388Y522898D01*
X998421Y522749D01*
X998446Y522590D01*
X998455Y522432D01*
X998463Y522257D01*
Y522249D01*
Y522216D01*
Y522165D01*
X998455Y522099D01*
X998446Y522015D01*
X998438Y521924D01*
X998421Y521816D01*
X998396Y521691D01*
X998371Y521566D01*
X998330Y521424D01*
X998288Y521282D01*
X998238Y521133D01*
X998180Y520983D01*
X998105Y520824D01*
X998022Y520674D01*
X997930Y520516D01*
X997922Y520508D01*
X997905Y520483D01*
X997872Y520441D01*
X997830Y520383D01*
X997780Y520316D01*
X997713Y520233D01*
X997638Y520150D01*
X997547Y520058D01*
X997447Y519958D01*
X997330Y519858D01*
X997205Y519750D01*
X997072Y519641D01*
X996930Y519542D01*
X996772Y519442D01*
X996605Y519350D01*
X996422Y519258D01*
X996414Y519250D01*
X996381Y519242D01*
X996322Y519217D01*
X996247Y519192D01*
X996156Y519158D01*
X996047Y519117D01*
X995922Y519075D01*
X995781Y519033D01*
X995623Y518992D01*
X995448Y518950D01*
X995264Y518917D01*
X995073Y518875D01*
X994873Y518850D01*
X994656Y518825D01*
X994431Y518817D01*
X994206Y518809D01*
X994056D01*
X993948Y518817D01*
X993815Y518825D01*
X993657Y518833D01*
X993482Y518850D01*
X993290Y518867D01*
X993090Y518892D01*
X992882Y518917D01*
X992440Y519000D01*
X992216Y519050D01*
X991999Y519108D01*
X991782Y519183D01*
X991582Y519258D01*
X991574Y519267D01*
X991532Y519283D01*
X991483Y519308D01*
X991407Y519342D01*
X991316Y519392D01*
X991216Y519450D01*
X991099Y519525D01*
X990983Y519600D01*
X990849Y519692D01*
X990716Y519791D01*
X990574Y519908D01*
X990441Y520033D01*
X990300Y520166D01*
X990166Y520308D01*
X990041Y520466D01*
X989925Y520633D01*
X989916Y520641D01*
X989900Y520674D01*
X989866Y520724D01*
X989833Y520791D01*
X989783Y520883D01*
X989733Y520983D01*
X989675Y521099D01*
X989625Y521233D01*
X989567Y521383D01*
X989508Y521541D01*
X989458Y521716D01*
X989408Y521891D01*
X989367Y522082D01*
X989333Y522282D01*
X989308Y522490D01*
X989300Y522707D01*
X990741Y522832D01*
Y522823D01*
X990749Y522790D01*
Y522749D01*
X990766Y522690D01*
X990774Y522615D01*
X990791Y522524D01*
X990816Y522432D01*
X990841Y522324D01*
X990899Y522099D01*
X990983Y521857D01*
X991083Y521624D01*
X991208Y521399D01*
X991216Y521391D01*
X991224Y521374D01*
X991249Y521349D01*
X991282Y521308D01*
X991316Y521257D01*
X991366Y521208D01*
X991424Y521149D01*
X991491Y521083D01*
X991566Y521016D01*
X991657Y520941D01*
X991749Y520866D01*
X991857Y520791D01*
X991966Y520716D01*
X992091Y520641D01*
X992224Y520574D01*
X992365Y520508D01*
X992374D01*
X992399Y520491D01*
X992449Y520474D01*
X992507Y520458D01*
X992582Y520433D01*
X992665Y520400D01*
X992774Y520366D01*
X992882Y520341D01*
X993007Y520308D01*
X993149Y520275D01*
X993290Y520250D01*
X993448Y520216D01*
X993781Y520183D01*
X994140Y520166D01*
X994223D01*
X994290Y520175D01*
X994365D01*
X994448Y520183D01*
X994548Y520191D01*
X994656Y520200D01*
X994898Y520233D01*
X995156Y520275D01*
X995414Y520341D01*
X995673Y520425D01*
X995681D01*
X995706Y520433D01*
X995739Y520449D01*
X995781Y520474D01*
X995839Y520500D01*
X995897Y520533D01*
X996047Y520608D01*
X996206Y520708D01*
X996372Y520833D01*
X996530Y520974D01*
X996664Y521133D01*
Y521141D01*
X996680Y521158D01*
X996697Y521182D01*
X996714Y521216D01*
X996739Y521257D01*
X996772Y521308D01*
X996830Y521432D01*
X996889Y521574D01*
X996947Y521741D01*
X996980Y521932D01*
X996997Y522124D01*
Y522132D01*
Y522149D01*
Y522174D01*
X996989Y522216D01*
Y522265D01*
X996980Y522315D01*
X996955Y522449D01*
X996922Y522590D01*
X996864Y522749D01*
X996780Y522907D01*
X996672Y523065D01*
Y523073D01*
X996655Y523082D01*
X996614Y523132D01*
X996530Y523207D01*
X996480Y523257D01*
X996422Y523307D01*
X996356Y523357D01*
X996280Y523415D01*
X996197Y523473D01*
X996097Y523532D01*
X995997Y523590D01*
X995881Y523648D01*
X995764Y523698D01*
X995631Y523757D01*
X995623D01*
X995606Y523765D01*
X995581Y523773D01*
X995531Y523790D01*
X995473Y523806D01*
X995406Y523832D01*
X995314Y523856D01*
X995206Y523890D01*
X995073Y523931D01*
X994931Y523973D01*
X994765Y524015D01*
X994573Y524065D01*
X994365Y524123D01*
X994123Y524181D01*
X993865Y524248D01*
X993582Y524315D01*
X993573D01*
X993565Y524323D01*
X993540D01*
X993515Y524331D01*
X993432Y524356D01*
X993323Y524381D01*
X993198Y524415D01*
X993048Y524456D01*
X992882Y524498D01*
X992715Y524548D01*
X992349Y524656D01*
X991982Y524781D01*
X991807Y524848D01*
X991641Y524914D01*
X991499Y524973D01*
X991366Y525039D01*
X991358Y525048D01*
X991333Y525056D01*
X991291Y525081D01*
X991233Y525114D01*
X991166Y525156D01*
X991083Y525214D01*
X990999Y525273D01*
X990899Y525339D01*
X990699Y525489D01*
X990499Y525672D01*
X990300Y525881D01*
X990216Y525997D01*
X990133Y526114D01*
X990125Y526122D01*
X990116Y526147D01*
X990100Y526181D01*
X990075Y526230D01*
X990041Y526289D01*
X990008Y526356D01*
X989975Y526439D01*
X989933Y526530D01*
X989900Y526639D01*
X989858Y526747D01*
X989800Y526989D01*
X989750Y527255D01*
X989742Y527397D01*
X989733Y527547D01*
Y527555D01*
Y527588D01*
Y527630D01*
X989742Y527697D01*
X989750Y527772D01*
X989758Y527863D01*
X989775Y527963D01*
X989791Y528080D01*
X989825Y528205D01*
X989850Y528330D01*
X989891Y528463D01*
X989941Y528605D01*
X990000Y528746D01*
X990066Y528888D01*
X990141Y529038D01*
X990225Y529179D01*
X990233Y529188D01*
X990250Y529213D01*
X990275Y529254D01*
X990316Y529304D01*
X990366Y529371D01*
X990433Y529438D01*
X990508Y529521D01*
X990591Y529604D01*
X990683Y529696D01*
X990791Y529796D01*
X990908Y529887D01*
X991041Y529987D01*
X991183Y530079D01*
X991333Y530171D01*
X991491Y530254D01*
X991666Y530329D01*
X991674Y530337D01*
X991707Y530345D01*
X991757Y530362D01*
X991832Y530396D01*
X991924Y530420D01*
X992024Y530454D01*
X992149Y530496D01*
X992290Y530529D01*
X992440Y530570D01*
X992599Y530604D01*
X992774Y530637D01*
X992957Y530670D01*
X993157Y530695D01*
X993357Y530712D01*
X993565Y530720D01*
X993781Y530729D01*
X993906D01*
X993998Y530720D01*
D02*
G37*
G36*
X1032235Y527309D02*
X1032318Y527303D01*
X1032418Y527298D01*
X1032529Y527281D01*
X1032657Y527264D01*
X1032801Y527242D01*
X1032951Y527209D01*
X1033107Y527170D01*
X1033267Y527126D01*
X1033428Y527065D01*
X1033589Y526998D01*
X1033756Y526920D01*
X1033911Y526831D01*
X1034061Y526726D01*
X1034072Y526721D01*
X1034094Y526698D01*
X1034139Y526665D01*
X1034189Y526615D01*
X1034255Y526560D01*
X1034328Y526482D01*
X1034405Y526399D01*
X1034494Y526299D01*
X1034583Y526188D01*
X1034677Y526066D01*
X1034766Y525927D01*
X1034855Y525783D01*
X1034943Y525622D01*
X1035021Y525450D01*
X1035099Y525266D01*
X1035160Y525072D01*
X1034161Y524839D01*
X1034155Y524850D01*
X1034150Y524878D01*
X1034133Y524917D01*
X1034111Y524978D01*
X1034083Y525044D01*
X1034050Y525122D01*
X1034006Y525211D01*
X1033961Y525305D01*
X1033911Y525405D01*
X1033850Y525505D01*
X1033789Y525605D01*
X1033717Y525710D01*
X1033639Y525805D01*
X1033562Y525899D01*
X1033473Y525982D01*
X1033378Y526060D01*
X1033373Y526066D01*
X1033356Y526077D01*
X1033329Y526093D01*
X1033290Y526121D01*
X1033240Y526149D01*
X1033179Y526182D01*
X1033107Y526216D01*
X1033029Y526254D01*
X1032940Y526288D01*
X1032846Y526321D01*
X1032740Y526354D01*
X1032629Y526382D01*
X1032507Y526410D01*
X1032379Y526426D01*
X1032246Y526438D01*
X1032102Y526443D01*
X1032019D01*
X1031958Y526438D01*
X1031880Y526432D01*
X1031791Y526421D01*
X1031691Y526410D01*
X1031586Y526388D01*
X1031469Y526365D01*
X1031353Y526338D01*
X1031231Y526304D01*
X1031103Y526265D01*
X1030981Y526216D01*
X1030859Y526154D01*
X1030737Y526093D01*
X1030620Y526016D01*
X1030615Y526010D01*
X1030592Y525999D01*
X1030565Y525971D01*
X1030526Y525938D01*
X1030476Y525894D01*
X1030420Y525844D01*
X1030359Y525783D01*
X1030293Y525716D01*
X1030226Y525638D01*
X1030154Y525555D01*
X1030087Y525461D01*
X1030021Y525355D01*
X1029954Y525250D01*
X1029893Y525133D01*
X1029838Y525011D01*
X1029788Y524878D01*
Y524872D01*
X1029776Y524845D01*
X1029765Y524806D01*
X1029749Y524756D01*
X1029732Y524689D01*
X1029710Y524612D01*
X1029693Y524523D01*
X1029671Y524423D01*
X1029649Y524317D01*
X1029627Y524201D01*
X1029604Y524079D01*
X1029588Y523951D01*
X1029560Y523685D01*
X1029554Y523546D01*
X1029549Y523402D01*
Y523390D01*
Y523357D01*
Y523307D01*
X1029554Y523235D01*
X1029560Y523152D01*
X1029566Y523052D01*
X1029571Y522941D01*
X1029582Y522824D01*
X1029599Y522691D01*
X1029616Y522552D01*
X1029671Y522269D01*
X1029699Y522120D01*
X1029738Y521975D01*
X1029782Y521831D01*
X1029832Y521692D01*
X1029838Y521687D01*
X1029843Y521659D01*
X1029860Y521626D01*
X1029887Y521576D01*
X1029915Y521515D01*
X1029954Y521443D01*
X1029998Y521365D01*
X1030048Y521281D01*
X1030110Y521198D01*
X1030176Y521109D01*
X1030248Y521015D01*
X1030326Y520926D01*
X1030415Y520838D01*
X1030509Y520754D01*
X1030609Y520677D01*
X1030720Y520604D01*
X1030725Y520599D01*
X1030748Y520588D01*
X1030781Y520571D01*
X1030825Y520549D01*
X1030881Y520521D01*
X1030948Y520488D01*
X1031025Y520460D01*
X1031108Y520427D01*
X1031203Y520388D01*
X1031303Y520360D01*
X1031414Y520327D01*
X1031525Y520299D01*
X1031647Y520277D01*
X1031769Y520260D01*
X1031897Y520249D01*
X1032024Y520244D01*
X1032063D01*
X1032108Y520249D01*
X1032168D01*
X1032241Y520260D01*
X1032324Y520271D01*
X1032424Y520283D01*
X1032524Y520305D01*
X1032635Y520332D01*
X1032751Y520366D01*
X1032873Y520405D01*
X1032996Y520449D01*
X1033118Y520505D01*
X1033240Y520571D01*
X1033356Y520649D01*
X1033473Y520732D01*
X1033478Y520738D01*
X1033500Y520754D01*
X1033528Y520782D01*
X1033567Y520826D01*
X1033617Y520876D01*
X1033673Y520937D01*
X1033734Y521015D01*
X1033795Y521098D01*
X1033861Y521198D01*
X1033928Y521304D01*
X1034000Y521426D01*
X1034061Y521559D01*
X1034128Y521698D01*
X1034183Y521853D01*
X1034233Y522014D01*
X1034278Y522192D01*
X1035293Y521936D01*
Y521931D01*
X1035288Y521920D01*
X1035282Y521903D01*
X1035277Y521881D01*
X1035271Y521853D01*
X1035260Y521814D01*
X1035232Y521731D01*
X1035193Y521626D01*
X1035149Y521509D01*
X1035093Y521376D01*
X1035027Y521232D01*
X1034955Y521076D01*
X1034871Y520921D01*
X1034777Y520765D01*
X1034672Y520604D01*
X1034555Y520449D01*
X1034427Y520299D01*
X1034289Y520160D01*
X1034139Y520027D01*
X1034128Y520022D01*
X1034100Y520000D01*
X1034056Y519966D01*
X1033989Y519927D01*
X1033911Y519877D01*
X1033811Y519822D01*
X1033700Y519761D01*
X1033573Y519700D01*
X1033434Y519639D01*
X1033278Y519578D01*
X1033112Y519522D01*
X1032934Y519472D01*
X1032740Y519433D01*
X1032540Y519400D01*
X1032329Y519378D01*
X1032108Y519372D01*
X1032024D01*
X1031985Y519378D01*
X1031902D01*
X1031797Y519389D01*
X1031675Y519400D01*
X1031536Y519417D01*
X1031392Y519433D01*
X1031231Y519461D01*
X1031070Y519494D01*
X1030898Y519539D01*
X1030731Y519583D01*
X1030565Y519644D01*
X1030398Y519711D01*
X1030237Y519789D01*
X1030087Y519877D01*
X1030076Y519883D01*
X1030054Y519900D01*
X1030015Y519933D01*
X1029960Y519972D01*
X1029893Y520022D01*
X1029821Y520088D01*
X1029738Y520160D01*
X1029649Y520249D01*
X1029554Y520349D01*
X1029460Y520455D01*
X1029360Y520577D01*
X1029260Y520704D01*
X1029166Y520849D01*
X1029072Y520998D01*
X1028983Y521165D01*
X1028905Y521337D01*
Y521343D01*
X1028900Y521348D01*
X1028889Y521382D01*
X1028866Y521431D01*
X1028844Y521503D01*
X1028811Y521592D01*
X1028778Y521698D01*
X1028739Y521820D01*
X1028705Y521953D01*
X1028666Y522103D01*
X1028628Y522264D01*
X1028594Y522430D01*
X1028561Y522614D01*
X1028539Y522797D01*
X1028517Y522991D01*
X1028506Y523191D01*
X1028500Y523396D01*
Y523402D01*
Y523413D01*
Y523429D01*
Y523452D01*
Y523479D01*
X1028506Y523513D01*
Y523596D01*
X1028517Y523701D01*
X1028522Y523823D01*
X1028539Y523962D01*
X1028555Y524112D01*
X1028583Y524267D01*
X1028611Y524434D01*
X1028650Y524612D01*
X1028694Y524789D01*
X1028744Y524967D01*
X1028805Y525144D01*
X1028877Y525316D01*
X1028955Y525489D01*
X1028961Y525499D01*
X1028977Y525527D01*
X1029005Y525572D01*
X1029038Y525638D01*
X1029088Y525710D01*
X1029144Y525794D01*
X1029216Y525894D01*
X1029294Y525993D01*
X1029377Y526099D01*
X1029477Y526216D01*
X1029582Y526327D01*
X1029699Y526438D01*
X1029826Y526548D01*
X1029960Y526654D01*
X1030104Y526754D01*
X1030259Y526848D01*
X1030270Y526854D01*
X1030298Y526870D01*
X1030343Y526893D01*
X1030409Y526920D01*
X1030487Y526959D01*
X1030581Y526998D01*
X1030692Y527037D01*
X1030809Y527081D01*
X1030942Y527126D01*
X1031086Y527165D01*
X1031242Y527209D01*
X1031403Y527242D01*
X1031575Y527270D01*
X1031752Y527292D01*
X1031935Y527309D01*
X1032124Y527314D01*
X1032202D01*
X1032235Y527309D01*
D02*
G37*
G36*
X980173Y530720D02*
X980281D01*
X980423Y530704D01*
X980589Y530687D01*
X980772Y530662D01*
X980972Y530637D01*
X981189Y530595D01*
X981422Y530546D01*
X981664Y530479D01*
X981905Y530404D01*
X982155Y530321D01*
X982405Y530212D01*
X982655Y530096D01*
X982897Y529962D01*
X982913Y529954D01*
X982955Y529929D01*
X983022Y529887D01*
X983105Y529821D01*
X983213Y529746D01*
X983338Y529654D01*
X983471Y529537D01*
X983621Y529413D01*
X983780Y529271D01*
X983938Y529113D01*
X984105Y528938D01*
X984263Y528746D01*
X984421Y528538D01*
X984579Y528321D01*
X984721Y528088D01*
X984854Y527838D01*
X984863Y527822D01*
X984888Y527780D01*
X984921Y527705D01*
X984962Y527597D01*
X985013Y527472D01*
X985071Y527313D01*
X985129Y527139D01*
X985196Y526939D01*
X985254Y526722D01*
X985312Y526480D01*
X985371Y526230D01*
X985421Y525956D01*
X985471Y525672D01*
X985504Y525373D01*
X985521Y525064D01*
X985529Y524748D01*
Y524740D01*
Y524731D01*
Y524706D01*
Y524673D01*
Y524631D01*
X985521Y524573D01*
Y524448D01*
X985504Y524298D01*
X985496Y524123D01*
X985471Y523915D01*
X985437Y523698D01*
X985404Y523457D01*
X985354Y523207D01*
X985296Y522949D01*
X985229Y522682D01*
X985146Y522407D01*
X985054Y522141D01*
X984946Y521874D01*
X984821Y521607D01*
X984813Y521591D01*
X984788Y521549D01*
X984746Y521474D01*
X984688Y521383D01*
X984621Y521266D01*
X984529Y521133D01*
X984421Y520983D01*
X984304Y520824D01*
X984171Y520658D01*
X984021Y520491D01*
X983855Y520316D01*
X983680Y520141D01*
X983480Y519975D01*
X983272Y519808D01*
X983047Y519658D01*
X982813Y519517D01*
X982797Y519508D01*
X982755Y519483D01*
X982680Y519450D01*
X982588Y519408D01*
X982463Y519350D01*
X982322Y519292D01*
X982164Y519225D01*
X981980Y519167D01*
X981772Y519100D01*
X981555Y519033D01*
X981331Y518975D01*
X981081Y518917D01*
X980831Y518875D01*
X980564Y518842D01*
X980289Y518817D01*
X980015Y518809D01*
X979939D01*
X979856Y518817D01*
X979740Y518825D01*
X979598Y518833D01*
X979431Y518850D01*
X979240Y518875D01*
X979040Y518908D01*
X978815Y518950D01*
X978582Y519000D01*
X978340Y519067D01*
X978099Y519142D01*
X977849Y519225D01*
X977590Y519333D01*
X977341Y519450D01*
X977099Y519592D01*
X977082Y519600D01*
X977041Y519625D01*
X976974Y519675D01*
X976891Y519733D01*
X976782Y519816D01*
X976657Y519908D01*
X976524Y520025D01*
X976374Y520150D01*
X976224Y520300D01*
X976058Y520458D01*
X975899Y520633D01*
X975741Y520824D01*
X975583Y521033D01*
X975433Y521249D01*
X975291Y521482D01*
X975158Y521732D01*
X975150Y521749D01*
X975133Y521791D01*
X975100Y521866D01*
X975058Y521974D01*
X975008Y522099D01*
X974950Y522249D01*
X974891Y522415D01*
X974833Y522607D01*
X974767Y522815D01*
X974708Y523040D01*
X974650Y523273D01*
X974600Y523523D01*
X974558Y523790D01*
X974525Y524056D01*
X974508Y524331D01*
X974500Y524614D01*
Y524623D01*
Y524648D01*
Y524689D01*
Y524740D01*
X974508Y524806D01*
Y524889D01*
X974517Y524981D01*
X974525Y525089D01*
X974533Y525206D01*
X974550Y525331D01*
X974567Y525464D01*
X974583Y525606D01*
X974633Y525914D01*
X974692Y526247D01*
X974775Y526605D01*
X974875Y526972D01*
X975000Y527347D01*
X975150Y527722D01*
X975325Y528088D01*
X975533Y528446D01*
X975650Y528621D01*
X975766Y528788D01*
X975899Y528946D01*
X976041Y529104D01*
X976049Y529113D01*
X976058Y529121D01*
X976083Y529146D01*
X976116Y529171D01*
X976149Y529213D01*
X976199Y529254D01*
X976324Y529363D01*
X976474Y529479D01*
X976657Y529621D01*
X976874Y529762D01*
X977116Y529921D01*
X977390Y530071D01*
X977690Y530212D01*
X978015Y530354D01*
X978365Y530479D01*
X978748Y530579D01*
X979148Y530662D01*
X979356Y530687D01*
X979573Y530712D01*
X979790Y530720D01*
X980015Y530729D01*
X980089D01*
X980173Y530720D01*
D02*
G37*
%LPC*%
G36*
X135207Y509555D02*
X135115D01*
X135048Y509547D01*
X134957Y509539D01*
X134865Y509522D01*
X134757Y509497D01*
X134640Y509472D01*
X134507Y509439D01*
X134382Y509397D01*
X134240Y509339D01*
X134107Y509280D01*
X133966Y509205D01*
X133824Y509114D01*
X133691Y509014D01*
X133566Y508897D01*
X133557Y508889D01*
X133541Y508864D01*
X133507Y508831D01*
X133458Y508781D01*
X133407Y508714D01*
X133349Y508631D01*
X133291Y508539D01*
X133224Y508439D01*
X133158Y508322D01*
X133091Y508189D01*
X133033Y508048D01*
X132974Y507889D01*
X132924Y507731D01*
X132883Y507548D01*
X132849Y507365D01*
X132833Y507165D01*
X137506D01*
Y507173D01*
X137497Y507215D01*
Y507265D01*
X137481Y507339D01*
X137472Y507423D01*
X137448Y507523D01*
X137431Y507639D01*
X137398Y507756D01*
X137331Y508014D01*
X137239Y508273D01*
X137114Y508522D01*
X137039Y508639D01*
X136964Y508739D01*
X136956Y508747D01*
X136931Y508772D01*
X136898Y508814D01*
X136839Y508864D01*
X136773Y508931D01*
X136698Y508997D01*
X136598Y509072D01*
X136490Y509147D01*
X136373Y509222D01*
X136240Y509297D01*
X136098Y509364D01*
X135940Y509430D01*
X135773Y509480D01*
X135590Y509522D01*
X135407Y509547D01*
X135207Y509555D01*
D02*
G37*
G36*
X116807D02*
X116715D01*
X116648Y509547D01*
X116557Y509539D01*
X116465Y509522D01*
X116357Y509497D01*
X116240Y509472D01*
X116107Y509439D01*
X115982Y509397D01*
X115840Y509339D01*
X115707Y509280D01*
X115566Y509205D01*
X115424Y509114D01*
X115291Y509014D01*
X115166Y508897D01*
X115157Y508889D01*
X115141Y508864D01*
X115107Y508831D01*
X115058Y508781D01*
X115007Y508714D01*
X114949Y508631D01*
X114891Y508539D01*
X114824Y508439D01*
X114758Y508322D01*
X114691Y508189D01*
X114633Y508048D01*
X114574Y507889D01*
X114524Y507731D01*
X114483Y507548D01*
X114449Y507365D01*
X114433Y507165D01*
X119106D01*
Y507173D01*
X119097Y507215D01*
Y507265D01*
X119081Y507339D01*
X119072Y507423D01*
X119047Y507523D01*
X119031Y507639D01*
X118998Y507756D01*
X118931Y508014D01*
X118839Y508273D01*
X118714Y508522D01*
X118639Y508639D01*
X118564Y508739D01*
X118556Y508747D01*
X118531Y508772D01*
X118498Y508814D01*
X118439Y508864D01*
X118373Y508931D01*
X118298Y508997D01*
X118198Y509072D01*
X118090Y509147D01*
X117973Y509222D01*
X117840Y509297D01*
X117698Y509364D01*
X117540Y509430D01*
X117373Y509480D01*
X117190Y509522D01*
X117007Y509547D01*
X116807Y509555D01*
D02*
G37*
G36*
X107265Y512254D02*
X103624D01*
Y508447D01*
X107073D01*
X107156Y508456D01*
X107265D01*
X107373Y508464D01*
X107498Y508472D01*
X107756Y508497D01*
X108031Y508539D01*
X108298Y508589D01*
X108414Y508622D01*
X108531Y508656D01*
X108539D01*
X108556Y508664D01*
X108589Y508681D01*
X108631Y508697D01*
X108681Y508722D01*
X108731Y508747D01*
X108864Y508822D01*
X109014Y508922D01*
X109164Y509039D01*
X109305Y509180D01*
X109430Y509347D01*
Y509355D01*
X109447Y509372D01*
X109455Y509397D01*
X109480Y509430D01*
X109505Y509472D01*
X109530Y509530D01*
X109589Y509655D01*
X109639Y509805D01*
X109689Y509980D01*
X109722Y510172D01*
X109739Y510380D01*
Y510388D01*
Y510413D01*
Y510455D01*
X109730Y510513D01*
X109722Y510588D01*
X109705Y510663D01*
X109689Y510755D01*
X109664Y510855D01*
X109630Y510955D01*
X109589Y511063D01*
X109547Y511180D01*
X109489Y511288D01*
X109414Y511405D01*
X109339Y511513D01*
X109247Y511621D01*
X109139Y511721D01*
X109131Y511729D01*
X109114Y511746D01*
X109072Y511771D01*
X109031Y511804D01*
X108964Y511846D01*
X108881Y511888D01*
X108789Y511938D01*
X108681Y511988D01*
X108564Y512038D01*
X108423Y512088D01*
X108264Y512129D01*
X108098Y512171D01*
X107914Y512204D01*
X107714Y512229D01*
X107498Y512246D01*
X107265Y512254D01*
D02*
G37*
G36*
X1049198Y507905D02*
X1045583Y502707D01*
X1049198D01*
Y507905D01*
D02*
G37*
G36*
X1014557Y506205D02*
X1014465D01*
X1014398Y506197D01*
X1014307Y506189D01*
X1014215Y506172D01*
X1014107Y506147D01*
X1013990Y506122D01*
X1013857Y506089D01*
X1013732Y506047D01*
X1013591Y505989D01*
X1013457Y505930D01*
X1013316Y505856D01*
X1013174Y505764D01*
X1013041Y505664D01*
X1012916Y505547D01*
X1012907Y505539D01*
X1012891Y505514D01*
X1012858Y505481D01*
X1012807Y505431D01*
X1012757Y505364D01*
X1012699Y505281D01*
X1012641Y505189D01*
X1012574Y505089D01*
X1012508Y504973D01*
X1012441Y504839D01*
X1012383Y504698D01*
X1012324Y504539D01*
X1012274Y504381D01*
X1012233Y504198D01*
X1012199Y504014D01*
X1012183Y503815D01*
X1016856D01*
Y503823D01*
X1016848Y503865D01*
Y503915D01*
X1016831Y503990D01*
X1016823Y504073D01*
X1016798Y504173D01*
X1016781Y504289D01*
X1016748Y504406D01*
X1016681Y504664D01*
X1016589Y504922D01*
X1016464Y505172D01*
X1016389Y505289D01*
X1016314Y505389D01*
X1016306Y505397D01*
X1016281Y505422D01*
X1016248Y505464D01*
X1016189Y505514D01*
X1016123Y505581D01*
X1016048Y505647D01*
X1015948Y505722D01*
X1015840Y505797D01*
X1015723Y505872D01*
X1015590Y505947D01*
X1015448Y506014D01*
X1015290Y506080D01*
X1015123Y506130D01*
X1014940Y506172D01*
X1014757Y506197D01*
X1014557Y506205D01*
D02*
G37*
G36*
X1004157Y506197D02*
X1004115D01*
X1004065Y506189D01*
X1003999D01*
X1003924Y506172D01*
X1003824Y506155D01*
X1003724Y506130D01*
X1003607Y506097D01*
X1003482Y506055D01*
X1003357Y506005D01*
X1003232Y505947D01*
X1003099Y505872D01*
X1002966Y505781D01*
X1002832Y505681D01*
X1002707Y505556D01*
X1002582Y505422D01*
X1002574Y505414D01*
X1002557Y505389D01*
X1002524Y505339D01*
X1002483Y505281D01*
X1002441Y505197D01*
X1002383Y505089D01*
X1002333Y504973D01*
X1002274Y504831D01*
X1002216Y504673D01*
X1002158Y504498D01*
X1002099Y504298D01*
X1002058Y504073D01*
X1002016Y503840D01*
X1001983Y503581D01*
X1001966Y503298D01*
X1001958Y502998D01*
Y502990D01*
Y502982D01*
Y502957D01*
Y502932D01*
X1001966Y502848D01*
Y502740D01*
X1001983Y502607D01*
X1001991Y502449D01*
X1002016Y502282D01*
X1002041Y502099D01*
X1002074Y501907D01*
X1002124Y501715D01*
X1002174Y501515D01*
X1002241Y501316D01*
X1002316Y501124D01*
X1002408Y500941D01*
X1002516Y500766D01*
X1002633Y500607D01*
X1002641Y500599D01*
X1002666Y500574D01*
X1002699Y500533D01*
X1002749Y500483D01*
X1002816Y500424D01*
X1002891Y500358D01*
X1002982Y500283D01*
X1003082Y500216D01*
X1003199Y500141D01*
X1003316Y500066D01*
X1003449Y500000D01*
X1003590Y499941D01*
X1003740Y499891D01*
X1003890Y499850D01*
X1004057Y499824D01*
X1004224Y499816D01*
X1004265D01*
X1004315Y499824D01*
X1004382D01*
X1004457Y499841D01*
X1004548Y499858D01*
X1004657Y499883D01*
X1004765Y499908D01*
X1004890Y499950D01*
X1005015Y500000D01*
X1005148Y500058D01*
X1005281Y500133D01*
X1005415Y500216D01*
X1005548Y500316D01*
X1005673Y500433D01*
X1005798Y500566D01*
X1005806Y500574D01*
X1005823Y500599D01*
X1005856Y500649D01*
X1005898Y500707D01*
X1005948Y500791D01*
X1006006Y500891D01*
X1006064Y501007D01*
X1006123Y501141D01*
X1006181Y501291D01*
X1006239Y501466D01*
X1006298Y501657D01*
X1006348Y501865D01*
X1006389Y502090D01*
X1006423Y502332D01*
X1006439Y502598D01*
X1006448Y502882D01*
Y502890D01*
Y502898D01*
Y502923D01*
Y502957D01*
Y503048D01*
X1006439Y503165D01*
X1006431Y503306D01*
X1006414Y503465D01*
X1006389Y503640D01*
X1006364Y503840D01*
X1006331Y504039D01*
X1006289Y504248D01*
X1006231Y504456D01*
X1006164Y504664D01*
X1006089Y504864D01*
X1005998Y505056D01*
X1005898Y505231D01*
X1005781Y505389D01*
X1005773Y505397D01*
X1005748Y505422D01*
X1005715Y505464D01*
X1005665Y505514D01*
X1005598Y505581D01*
X1005523Y505647D01*
X1005431Y505714D01*
X1005331Y505797D01*
X1005223Y505872D01*
X1005098Y505939D01*
X1004965Y506014D01*
X1004815Y506072D01*
X1004665Y506122D01*
X1004507Y506164D01*
X1004332Y506189D01*
X1004157Y506197D01*
D02*
G37*
G36*
X993807D02*
X993757D01*
X993707Y506189D01*
X993632D01*
X993540Y506172D01*
X993432Y506155D01*
X993315Y506130D01*
X993190Y506097D01*
X993057Y506055D01*
X992916Y506005D01*
X992766Y505939D01*
X992616Y505864D01*
X992474Y505772D01*
X992324Y505664D01*
X992182Y505539D01*
X992049Y505397D01*
X992041Y505389D01*
X992016Y505364D01*
X991982Y505314D01*
X991941Y505247D01*
X991891Y505164D01*
X991833Y505064D01*
X991766Y504939D01*
X991708Y504806D01*
X991641Y504639D01*
X991574Y504464D01*
X991516Y504273D01*
X991466Y504056D01*
X991424Y503823D01*
X991391Y503565D01*
X991366Y503298D01*
X991358Y503007D01*
Y502998D01*
Y502990D01*
Y502965D01*
Y502940D01*
X991366Y502857D01*
Y502748D01*
X991383Y502615D01*
X991391Y502457D01*
X991416Y502290D01*
X991441Y502107D01*
X991483Y501915D01*
X991524Y501715D01*
X991583Y501515D01*
X991649Y501324D01*
X991733Y501124D01*
X991824Y500941D01*
X991924Y500766D01*
X992049Y500607D01*
X992058Y500599D01*
X992083Y500574D01*
X992124Y500533D01*
X992174Y500483D01*
X992241Y500424D01*
X992324Y500358D01*
X992424Y500283D01*
X992532Y500216D01*
X992649Y500141D01*
X992782Y500066D01*
X992932Y500000D01*
X993082Y499941D01*
X993249Y499891D01*
X993432Y499850D01*
X993615Y499824D01*
X993807Y499816D01*
X993857D01*
X993907Y499824D01*
X993982Y499833D01*
X994073Y499841D01*
X994182Y499858D01*
X994298Y499883D01*
X994423Y499916D01*
X994557Y499958D01*
X994698Y500008D01*
X994848Y500074D01*
X994998Y500158D01*
X995140Y500249D01*
X995290Y500349D01*
X995431Y500474D01*
X995564Y500616D01*
X995573Y500624D01*
X995598Y500658D01*
X995631Y500699D01*
X995673Y500766D01*
X995731Y500849D01*
X995789Y500957D01*
X995848Y501082D01*
X995914Y501224D01*
X995981Y501382D01*
X996039Y501566D01*
X996106Y501765D01*
X996156Y501982D01*
X996198Y502224D01*
X996231Y502482D01*
X996256Y502757D01*
X996264Y503057D01*
Y503065D01*
Y503073D01*
Y503123D01*
X996256Y503206D01*
Y503306D01*
X996239Y503440D01*
X996231Y503590D01*
X996206Y503748D01*
X996173Y503931D01*
X996139Y504114D01*
X996089Y504306D01*
X996031Y504498D01*
X995964Y504698D01*
X995881Y504881D01*
X995789Y505064D01*
X995681Y505239D01*
X995556Y505397D01*
X995548Y505406D01*
X995523Y505431D01*
X995481Y505472D01*
X995431Y505522D01*
X995364Y505581D01*
X995281Y505647D01*
X995181Y505722D01*
X995073Y505797D01*
X994956Y505872D01*
X994823Y505947D01*
X994681Y506014D01*
X994523Y506072D01*
X994357Y506122D01*
X994182Y506164D01*
X993998Y506189D01*
X993807Y506197D01*
D02*
G37*
G36*
X1053699Y529137D02*
X1053657D01*
X1053607Y529128D01*
X1053540D01*
X1053457Y529112D01*
X1053365Y529095D01*
X1053257Y529070D01*
X1053140Y529037D01*
X1053007Y528995D01*
X1052882Y528945D01*
X1052740Y528887D01*
X1052599Y528812D01*
X1052457Y528720D01*
X1052324Y528620D01*
X1052182Y528495D01*
X1052049Y528362D01*
X1052041Y528354D01*
X1052016Y528329D01*
X1051982Y528287D01*
X1051941Y528220D01*
X1051891Y528145D01*
X1051833Y528054D01*
X1051766Y527945D01*
X1051708Y527829D01*
X1051641Y527687D01*
X1051574Y527537D01*
X1051516Y527379D01*
X1051466Y527196D01*
X1051424Y527012D01*
X1051391Y526813D01*
X1051366Y526596D01*
X1051358Y526371D01*
Y526363D01*
Y526321D01*
X1051366Y526263D01*
Y526188D01*
X1051374Y526096D01*
X1051391Y525988D01*
X1051416Y525863D01*
X1051441Y525738D01*
X1051474Y525596D01*
X1051516Y525455D01*
X1051574Y525305D01*
X1051633Y525155D01*
X1051708Y525005D01*
X1051799Y524855D01*
X1051899Y524713D01*
X1052016Y524580D01*
X1052024Y524572D01*
X1052049Y524555D01*
X1052083Y524513D01*
X1052132Y524472D01*
X1052199Y524422D01*
X1052274Y524364D01*
X1052366Y524305D01*
X1052466Y524239D01*
X1052582Y524172D01*
X1052707Y524114D01*
X1052841Y524055D01*
X1052982Y524005D01*
X1053140Y523964D01*
X1053307Y523930D01*
X1053474Y523905D01*
X1053657Y523897D01*
X1053699D01*
X1053749Y523905D01*
X1053823D01*
X1053907Y523922D01*
X1053998Y523930D01*
X1054107Y523955D01*
X1054232Y523980D01*
X1054357Y524022D01*
X1054482Y524064D01*
X1054615Y524122D01*
X1054756Y524189D01*
X1054890Y524264D01*
X1055023Y524355D01*
X1055148Y524464D01*
X1055273Y524580D01*
X1055281Y524588D01*
X1055298Y524614D01*
X1055331Y524655D01*
X1055373Y524705D01*
X1055423Y524780D01*
X1055473Y524863D01*
X1055531Y524963D01*
X1055589Y525080D01*
X1055648Y525205D01*
X1055706Y525347D01*
X1055756Y525505D01*
X1055806Y525680D01*
X1055848Y525863D01*
X1055881Y526054D01*
X1055898Y526263D01*
X1055906Y526488D01*
Y526504D01*
Y526538D01*
Y526604D01*
X1055898Y526688D01*
X1055889Y526796D01*
X1055873Y526912D01*
X1055848Y527046D01*
X1055823Y527187D01*
X1055789Y527337D01*
X1055748Y527496D01*
X1055698Y527654D01*
X1055631Y527820D01*
X1055556Y527979D01*
X1055473Y528129D01*
X1055373Y528279D01*
X1055256Y528420D01*
X1055248Y528429D01*
X1055223Y528454D01*
X1055190Y528487D01*
X1055140Y528528D01*
X1055081Y528587D01*
X1055006Y528645D01*
X1054915Y528712D01*
X1054815Y528778D01*
X1054706Y528845D01*
X1054590Y528912D01*
X1054465Y528970D01*
X1054323Y529028D01*
X1054182Y529070D01*
X1054023Y529103D01*
X1053865Y529128D01*
X1053699Y529137D01*
D02*
G37*
G36*
X980023Y529413D02*
X979948D01*
X979865Y529404D01*
X979756Y529396D01*
X979615Y529379D01*
X979448Y529354D01*
X979265Y529321D01*
X979073Y529271D01*
X978857Y529213D01*
X978632Y529138D01*
X978407Y529046D01*
X978165Y528946D01*
X977932Y528813D01*
X977699Y528663D01*
X977466Y528496D01*
X977241Y528296D01*
X977224Y528280D01*
X977191Y528246D01*
X977132Y528180D01*
X977057Y528080D01*
X976974Y527963D01*
X976874Y527805D01*
X976766Y527630D01*
X976657Y527422D01*
X976549Y527180D01*
X976441Y526905D01*
X976349Y526597D01*
X976258Y526264D01*
X976183Y525897D01*
X976149Y525697D01*
X976124Y525497D01*
X976099Y525281D01*
X976091Y525056D01*
X976074Y524831D01*
Y524589D01*
Y524581D01*
Y524565D01*
Y524540D01*
Y524498D01*
X976083Y524448D01*
Y524390D01*
Y524323D01*
X976091Y524248D01*
X976108Y524073D01*
X976133Y523865D01*
X976166Y523640D01*
X976216Y523398D01*
X976274Y523140D01*
X976349Y522873D01*
X976441Y522599D01*
X976549Y522324D01*
X976674Y522057D01*
X976824Y521791D01*
X976991Y521541D01*
X977191Y521308D01*
X977207Y521291D01*
X977241Y521257D01*
X977307Y521199D01*
X977390Y521124D01*
X977507Y521033D01*
X977632Y520933D01*
X977790Y520824D01*
X977965Y520716D01*
X978157Y520599D01*
X978374Y520491D01*
X978607Y520391D01*
X978857Y520300D01*
X979115Y520225D01*
X979398Y520166D01*
X979698Y520133D01*
X980006Y520116D01*
X980081D01*
X980123Y520125D01*
X980173D01*
X980289Y520133D01*
X980439Y520150D01*
X980606Y520183D01*
X980797Y520216D01*
X981006Y520266D01*
X981222Y520333D01*
X981456Y520408D01*
X981689Y520508D01*
X981922Y520624D01*
X982164Y520766D01*
X982397Y520924D01*
X982622Y521116D01*
X982838Y521324D01*
X982855Y521341D01*
X982888Y521383D01*
X982938Y521449D01*
X983013Y521549D01*
X983097Y521674D01*
X983188Y521824D01*
X983296Y521999D01*
X983396Y522207D01*
X983505Y522440D01*
X983605Y522690D01*
X983696Y522973D01*
X983780Y523282D01*
X983855Y523615D01*
X983905Y523973D01*
X983946Y524348D01*
X983955Y524756D01*
Y524773D01*
Y524814D01*
Y524889D01*
X983946Y524989D01*
X983938Y525114D01*
X983930Y525256D01*
X983913Y525414D01*
X983896Y525589D01*
X983871Y525772D01*
X983838Y525972D01*
X983796Y526172D01*
X983755Y526380D01*
X983696Y526589D01*
X983630Y526797D01*
X983555Y527005D01*
X983471Y527205D01*
X983463Y527213D01*
X983446Y527255D01*
X983421Y527305D01*
X983380Y527380D01*
X983330Y527463D01*
X983272Y527572D01*
X983205Y527680D01*
X983122Y527805D01*
X983030Y527930D01*
X982922Y528063D01*
X982813Y528196D01*
X982688Y528330D01*
X982547Y528463D01*
X982405Y528596D01*
X982247Y528713D01*
X982080Y528829D01*
X982072Y528838D01*
X982039Y528855D01*
X981989Y528879D01*
X981922Y528921D01*
X981830Y528963D01*
X981730Y529013D01*
X981614Y529071D01*
X981481Y529121D01*
X981331Y529179D01*
X981172Y529229D01*
X981006Y529279D01*
X980822Y529321D01*
X980639Y529363D01*
X980439Y529388D01*
X980231Y529404D01*
X980023Y529413D01*
D02*
G37*
%LPD*%
D19*
X1086620Y141800D02*
G03*
X1086620Y141800I-7120J0D01*
G01*
X1038361Y523400D02*
G03*
X1038361Y523400I-6161J0D01*
G01*
X102990Y502750D02*
Y511750D01*
X1066450Y141950D02*
X1069500D01*
X1066450D02*
X1069500D01*
X1063490Y135800D02*
X1065900D01*
X1061100D02*
X1063490D01*
X1061100Y148300D02*
X1063490D01*
X1065900D01*
X1061100D02*
X1065900D01*
X1063490Y135800D02*
Y148300D01*
X1061100Y135800D02*
X1065900D01*
D20*
X195500Y201400D02*
X232800D01*
X103200Y350500D02*
X152300Y301400D01*
X410300Y457300D02*
X515700Y351900D01*
X573000Y277200D02*
X609800Y240400D01*
X347700Y457300D02*
X410300D01*
X763100Y335500D02*
X813300Y285300D01*
X831200Y342600D02*
X891400Y282400D01*
X178700Y262700D02*
X197600Y243800D01*
X121900Y187300D02*
Y244100D01*
X648200Y276500D02*
Y332800D01*
X684600Y201300D02*
X711300Y174600D01*
X346400Y467500D02*
X476600D01*
X592800Y351300D02*
X629700D01*
X476600Y467500D02*
X592800Y351300D01*
X721800Y276900D02*
X760900Y237800D01*
X497300Y277200D02*
X534600Y239900D01*
Y202300D02*
X572700Y164200D01*
X440900Y351700D02*
X479100D01*
X366300Y426300D02*
X440900Y351700D01*
X421900Y276200D02*
X459700Y238400D01*
X347400Y275700D02*
X385400Y237700D01*
X290100Y351300D02*
X329200D01*
X272500Y276600D02*
X309500Y239600D01*
X252600Y351600D02*
X272500Y331700D01*
X1022100Y187200D02*
Y244800D01*
X346500Y478500D02*
X494800D01*
X262400Y487700D02*
X268400D01*
X257000Y478000D02*
X264600D01*
X255400Y457700D02*
X263100D01*
X432700Y595000D02*
Y597700D01*
X572500Y592800D02*
Y602100D01*
X712500Y597200D02*
Y602200D01*
X702500Y562200D02*
Y568200D01*
X522700Y563500D02*
Y568300D01*
X112500Y599400D02*
X112600Y597600D01*
X122100Y566600D02*
X122600Y567600D01*
X142600Y597600D02*
Y603500D01*
X152600Y597600D02*
X155000D01*
X122100Y562100D02*
Y566600D01*
X112600Y573200D02*
X119300Y579900D01*
X112600Y567600D02*
Y573200D01*
X83400Y568700D02*
Y573800D01*
X96600Y587000D01*
X798200Y446700D02*
X866900Y515400D01*
X834800Y169300D02*
X851500Y186000D01*
X712600Y627600D02*
X718800D01*
X666800Y425500D02*
X675200D01*
X672600Y567600D02*
Y597600D01*
X941500Y460300D02*
X941700Y461500D01*
X791900Y498600D02*
X792600Y500300D01*
X802600Y506700D02*
X802900Y506300D01*
X443800Y499200D02*
X444000Y500600D01*
X402300Y506700D02*
X402600Y507600D01*
X232200Y522900D02*
X232600Y524700D01*
X179600Y622200D02*
X180300Y623400D01*
X522600Y621300D02*
X522700Y621800D01*
X612000Y628700D02*
X612300Y629900D01*
X760600Y552200D02*
X761300Y550400D01*
X770400Y608600D02*
X771300Y610200D01*
X804800Y647600D02*
X812600D01*
X852600Y597600D02*
X853200Y601100D01*
X842600Y597600D02*
Y601300D01*
X791800Y599100D02*
X792600Y597600D01*
X702500Y568200D02*
X702600Y567600D01*
X662600D02*
X662900Y566600D01*
X652500Y598300D02*
X652600Y597600D01*
X672600D02*
Y598000D01*
X702600Y597600D02*
X702700Y598500D01*
X712500Y597200D02*
X712600Y597600D01*
X712200Y627600D02*
X712600D01*
X671500Y647700D02*
X672600Y647600D01*
X562500Y598500D02*
X562600Y597600D01*
X572500Y602100D02*
X572600Y597600D01*
X522600Y567600D02*
X522700Y568300D01*
X532600Y597600D02*
X533100Y594000D01*
X422500Y567400D02*
X422600Y567600D01*
X432600Y597600D02*
X432700Y597700D01*
X402600Y597600D02*
X402900Y597000D01*
X392600Y597600D02*
Y602200D01*
X282400Y569300D02*
X282600Y567600D01*
X262200Y566500D02*
X262600Y567600D01*
X272600Y597600D02*
Y603800D01*
X347700Y457300D02*
X352600Y457600D01*
X346400Y467500D02*
X352600Y467600D01*
X346500Y478500D02*
X352600Y477600D01*
X262600Y457600D02*
X263100Y457700D01*
X262600Y477600D02*
X264600Y478000D01*
X262400Y487700D02*
X262600Y487600D01*
X88700Y517200D02*
X91700Y518500D01*
X815300Y425900D02*
X816400Y426700D01*
X1041500Y426000D02*
X1043600Y424000D01*
X666500Y425500D02*
X666800D01*
X664000Y396200D02*
X666800Y394800D01*
X592200D02*
X593000Y397200D01*
X366000Y425500D02*
X366300Y426300D01*
X233800Y169700D02*
X235000Y171300D01*
X834700Y169200D02*
X834800Y169300D01*
X197200Y243700D02*
X197600Y243800D01*
X121900Y244100D02*
X122000Y244000D01*
X232700Y201400D02*
X233700Y201200D01*
X384600D02*
X385400Y202200D01*
X534500Y201200D02*
X534600Y202300D01*
X685200Y201800D02*
X685400Y201200D01*
X684600Y201300D02*
X685400Y201200D01*
X760100D02*
X760900Y202800D01*
X910300Y201200D02*
X912000Y200700D01*
X1002000Y201600D02*
X1004300Y201200D01*
X1022100Y244800D02*
X1022800Y244700D01*
X872600Y277100D02*
X873200Y277300D01*
X797000Y244600D02*
X798200Y244500D01*
X797200Y277700D02*
X797700Y276900D01*
X721800D02*
X722000Y276400D01*
X648000Y276700D02*
X648200Y276500D01*
X497200Y276400D02*
X497300Y277200D01*
X421800Y275400D02*
X421900Y276200D01*
X347100Y275400D02*
X347400Y275700D01*
X272500Y276600D02*
X272800Y275400D01*
X178700Y351700D02*
Y387900D01*
X252600Y351600D02*
X253700Y350800D01*
X328700Y351400D02*
X329200Y351300D01*
X403700Y350700D02*
X404100D01*
X401500Y351400D02*
X403700Y350700D01*
X478700Y352400D02*
X479100Y351700D01*
X1022500Y352400D02*
X1022700Y352500D01*
X928700Y352400D02*
X929100Y354100D01*
X628700Y352400D02*
X629700Y351300D01*
X553500Y351900D02*
X553700Y352400D01*
X703400Y321200D02*
X703700Y320400D01*
X572900Y276100D02*
X573000Y277200D01*
X941500Y366600D02*
Y460300D01*
Y366600D02*
X948000Y360100D01*
Y276700D02*
Y360100D01*
X404100Y350700D02*
X421900Y332900D01*
Y276200D02*
Y332900D01*
X459700Y201200D02*
Y238400D01*
X235000Y171300D02*
X251700Y188000D01*
Y207900D01*
X215800Y243800D02*
X251700Y207900D01*
X197600Y243800D02*
X215800D01*
X178700Y262700D02*
Y320400D01*
X272500Y276600D02*
Y331700D01*
X309500Y201200D02*
Y239600D01*
X385400Y202200D02*
Y237700D01*
X347400Y275700D02*
Y333100D01*
X329200Y351300D02*
X347400Y333100D01*
X215900Y425500D02*
X290100Y351300D01*
X364500Y351400D02*
X401500D01*
X290400Y425500D02*
X364500Y351400D01*
X479100Y351700D02*
X497300Y333500D01*
Y277200D02*
Y333500D01*
X534600Y202300D02*
Y239900D01*
X572700Y125700D02*
Y164200D01*
X802600Y506700D02*
Y567600D01*
X792600Y500300D02*
Y567600D01*
X812600D02*
Y597600D01*
X826700Y627600D02*
X853200Y601100D01*
X812600Y627600D02*
X826700D01*
X826300Y617600D02*
X842600Y601300D01*
X812600Y617600D02*
X826300D01*
X791800Y599100D02*
Y622900D01*
X806500Y637600D01*
X812600D01*
X782600Y625400D02*
X804800Y647600D01*
X782600Y597600D02*
Y625400D01*
X770400Y575600D02*
Y608600D01*
X760600Y552200D02*
Y590600D01*
X761300Y550400D02*
X781700Y537900D01*
X709900Y604800D02*
X712500Y602200D01*
X680100Y637600D02*
X709900Y604800D01*
X672600Y637600D02*
X680100D01*
X702700Y598500D02*
Y602500D01*
X687600Y617600D02*
X702700Y602500D01*
X672600Y617600D02*
X687600D01*
X652500Y598300D02*
Y613400D01*
X666700Y627600D01*
X672600D01*
X665300Y647700D02*
X671500D01*
X642600Y625000D02*
X665300Y647700D01*
X642600Y597600D02*
Y625000D01*
X662900Y562700D02*
Y566600D01*
X657100Y556900D02*
X662900Y562700D01*
X636600Y556900D02*
X657100D01*
X626500Y567000D02*
X636600Y556900D01*
X626500Y567000D02*
Y621400D01*
X612000Y568200D02*
Y628700D01*
Y568200D02*
X633500Y546700D01*
X676800D01*
X692600Y562500D01*
Y567600D01*
X679600Y539300D02*
X702500Y562200D01*
X629000Y539300D02*
X679600D01*
X596700Y571600D02*
X629000Y539300D01*
X596700Y571600D02*
Y602300D01*
X550500Y648500D02*
X596700Y602300D01*
X157200Y648500D02*
X550500D01*
X140700Y632000D02*
X157200Y648500D01*
X562500Y598500D02*
Y604100D01*
X532100Y634500D02*
X562500Y604100D01*
X502300Y634500D02*
X532100D01*
X112500Y599400D02*
Y621800D01*
X149900D01*
X168800Y640700D01*
X536900D01*
X572500Y602100D01*
X566400Y586700D02*
X572500Y592800D01*
X548400Y586700D02*
X566400D01*
X542600Y592500D02*
X548400Y586700D01*
X542600Y592500D02*
Y597600D01*
X522600D02*
Y621300D01*
X512600Y573500D02*
X533100Y594000D01*
X512600Y567600D02*
Y573500D01*
X511900Y552700D02*
X522700Y563500D01*
X508600Y552700D02*
X511900D01*
X502300Y559000D02*
X508600Y552700D01*
X502300Y559000D02*
Y634500D01*
X173600D02*
X502300D01*
X142600Y603500D02*
X173600Y634500D01*
X155000Y597600D02*
X179600Y622200D01*
X122100Y562100D02*
X135300Y548900D01*
X157300D01*
X218200Y609800D01*
X245900D01*
X252600Y603100D01*
Y597600D02*
Y603100D01*
X232100Y481000D02*
X255400Y457700D01*
X232100Y481000D02*
Y492000D01*
X202300Y521800D02*
X232100Y492000D01*
X202300Y521800D02*
Y577200D01*
X211300Y586200D01*
X255700D01*
X262600Y593100D01*
Y597600D01*
X232600Y524700D02*
Y567600D01*
X282400Y569300D02*
Y573000D01*
X275700Y579700D02*
X282400Y573000D01*
X217000Y579700D02*
X275700D01*
X211800Y574500D02*
X217000Y579700D01*
X211800Y525900D02*
Y574500D01*
Y525900D02*
X241600Y496100D01*
Y482800D02*
Y496100D01*
Y482800D02*
X256800Y467600D01*
X262600D01*
X250500Y484500D02*
X257000Y478000D01*
X250500Y484500D02*
Y565500D01*
X252600Y567600D01*
X262200Y514800D02*
Y566500D01*
X268400Y487700D02*
X305300Y524600D01*
Y579900D01*
X292600Y592600D02*
X305300Y579900D01*
X292600Y592600D02*
Y597600D01*
X272600Y603800D02*
X278900Y610100D01*
X320000D01*
X322400Y607700D01*
X376000Y618800D02*
X392600Y602200D01*
X214100Y618800D02*
X376000D01*
X175200Y579900D02*
X214100Y618800D01*
X119300Y579900D02*
X175200D01*
X96600Y587000D02*
X171200D01*
X210500Y626300D01*
X399200D01*
X422600Y602900D01*
Y597600D02*
Y602900D01*
X432700Y595000D02*
X458000Y569700D01*
Y496300D02*
Y569700D01*
X449300Y487600D02*
X458000Y496300D01*
X352600Y487600D02*
X449300D01*
X444000Y500600D02*
Y571800D01*
X436200Y579600D02*
X444000Y571800D01*
X424600Y579600D02*
X436200D01*
X412600Y591600D02*
X424600Y579600D01*
X412600Y591600D02*
Y597600D01*
X402900Y594300D02*
Y597000D01*
X391800Y583200D02*
X402900Y594300D01*
X354300Y583200D02*
X391800D01*
X324000Y552900D02*
X354300Y583200D01*
X324000Y481000D02*
Y552900D01*
Y481000D02*
X347700Y457300D01*
X515700Y351900D02*
X553500D01*
X573000Y332400D01*
Y277200D02*
Y332400D01*
X609800Y201200D02*
Y240400D01*
X685200Y201800D02*
Y239500D01*
X648200Y276500D02*
X685200Y239500D01*
X629700Y351300D02*
X648200Y332800D01*
X332600Y481300D02*
X346400Y467500D01*
X332600Y481300D02*
Y496500D01*
X392600Y556500D01*
Y567600D01*
X347300Y537300D02*
X372600Y562600D01*
Y567600D01*
X402600Y507600D02*
Y567600D01*
X422500Y508300D02*
Y567400D01*
X409100Y494900D02*
X422500Y508300D01*
X366500Y494900D02*
X409100D01*
X360900Y500500D02*
X366500Y494900D01*
X347800Y500500D02*
X360900D01*
X340000Y492700D02*
X347800Y500500D01*
X340000Y485000D02*
Y492700D01*
Y485000D02*
X346500Y478500D01*
X494800D02*
X547800Y425500D01*
X592200D01*
X593000Y397200D02*
X612500Y416700D01*
Y447700D01*
X723400Y558600D01*
Y611500D01*
X717300Y617600D02*
X723400Y611500D01*
X712600Y617600D02*
X717300D01*
X718800Y627600D02*
X731900Y614500D01*
Y555700D02*
Y614500D01*
X621800Y445600D02*
X731900Y555700D01*
X621800Y384000D02*
Y445600D01*
Y384000D02*
X671400Y334400D01*
Y295300D02*
Y334400D01*
Y295300D02*
X722000Y244700D01*
X760900Y202800D02*
Y237800D01*
X721800Y276900D02*
Y334300D01*
X703700Y352400D02*
X721800Y334300D01*
X632200Y392400D02*
X703400Y321200D01*
X632200Y392400D02*
Y440200D01*
X740900Y548900D01*
Y614800D01*
X718100Y637600D02*
X740900Y614800D01*
X712600Y637600D02*
X718100D01*
X712600Y647600D02*
X720800D01*
X749200Y619200D01*
Y543100D02*
Y619200D01*
X641900Y435800D02*
X749200Y543100D01*
X641900Y397700D02*
Y435800D01*
Y397700D02*
X671600Y368000D01*
X712900D01*
X737300Y343600D01*
Y275300D02*
Y343600D01*
Y275300D02*
X774300Y238300D01*
Y183500D02*
Y238300D01*
X760100Y169300D02*
X774300Y183500D01*
X946600Y201600D02*
X1002000D01*
X911600Y236600D02*
X946600Y201600D01*
X911600Y236600D02*
Y294500D01*
X853700Y352400D02*
X911600Y294500D01*
X929100Y354100D02*
Y389900D01*
X891700Y427300D02*
X929100Y389900D01*
X792000Y402600D02*
X815300Y425900D01*
X792000Y365700D02*
Y402600D01*
X778700Y352400D02*
X792000Y365700D01*
X651600Y408600D02*
X664000Y396200D01*
X651600Y408600D02*
Y432700D01*
X665600Y446700D01*
X798200D01*
X866900Y515400D02*
Y608400D01*
X857700Y617600D02*
X866900Y608400D01*
X852600Y617600D02*
X857700D01*
X852600Y647600D02*
X859400D01*
X896100Y610900D01*
Y531300D02*
Y610900D01*
Y531300D02*
X951400Y476000D01*
Y376600D02*
Y476000D01*
Y376600D02*
X981200Y346800D01*
Y285700D02*
Y346800D01*
Y285700D02*
X1022100Y244800D01*
X1004200Y169300D02*
X1022100Y187200D01*
X754700Y320200D02*
X797200Y277700D01*
X754700Y320200D02*
Y369800D01*
X763200Y378300D01*
Y405400D01*
X742100Y426500D02*
X763200Y405400D01*
X675200Y425500D02*
X745000Y355700D01*
Y283200D02*
Y355700D01*
Y283200D02*
X781500Y246700D01*
Y235700D02*
Y246700D01*
Y235700D02*
X816000Y201200D01*
X834800D01*
X851500Y186000D02*
Y206300D01*
X813300Y244500D02*
X851500Y206300D01*
X798200Y244500D02*
X813300D01*
Y285300D01*
X763100Y335500D02*
Y362700D01*
X773300Y372900D01*
Y405200D01*
X876500Y508400D01*
Y609000D01*
X857900Y627600D02*
X876500Y609000D01*
X852600Y627600D02*
X857900D01*
X852600Y637600D02*
X858500D01*
X886500Y609600D01*
Y502100D02*
Y609600D01*
X831200Y446800D02*
X886500Y502100D01*
X831200Y342600D02*
Y446800D01*
X891400Y245100D02*
Y282400D01*
X873000Y245100D02*
X891400D01*
Y188200D02*
Y245100D01*
Y188200D02*
X910300Y169300D01*
X912000Y200700D02*
X963600Y149100D01*
X1005500D01*
X1041300Y184900D01*
Y333900D01*
X1022700Y352500D02*
X1041300Y333900D01*
X1022700Y352500D02*
Y370200D01*
X966800Y426100D02*
X1022700Y370200D01*
X1043600Y424000D02*
X1060800Y406800D01*
Y186900D02*
Y406800D01*
X1013000Y139100D02*
X1060800Y186900D01*
X871100Y139100D02*
X1013000D01*
X851300Y255800D02*
X872600Y277100D01*
X851300Y233600D02*
Y255800D01*
Y233600D02*
X871100Y213800D01*
Y139100D02*
Y213800D01*
X711300Y139100D02*
X871100D01*
X711300D02*
Y174600D01*
X640500Y139100D02*
X711300D01*
X580500Y79100D02*
X640500Y139100D01*
X563800Y79100D02*
X580500D01*
X503700Y139200D02*
X563800Y79100D01*
X201200Y139200D02*
X503700D01*
X139200Y201200D02*
X201200Y139200D01*
X121900Y187300D02*
X139400Y169800D01*
X102500Y263500D02*
X121900Y244100D01*
X102500Y263500D02*
Y320400D01*
X152300Y244600D02*
X195500Y201400D01*
X152300Y244600D02*
Y301400D01*
X141100Y425500D02*
X178700Y387900D01*
X70100Y498600D02*
X88700Y517200D01*
X70100Y209100D02*
Y498600D01*
Y209100D02*
X209800Y69400D01*
X454300D01*
X484100Y99200D01*
X528700D01*
X558300Y69600D01*
X584900D01*
X614300Y99000D01*
X659900D01*
X689000Y69900D01*
X960200D01*
X1080600Y190300D01*
Y258100D01*
X1098900Y276400D01*
D21*
X542600Y554900D02*
Y570400D01*
X552600Y554900D02*
Y570400D01*
X562600Y554900D02*
Y570400D01*
X1122800Y594700D02*
Y620200D01*
Y544800D02*
Y570300D01*
X1112800Y594700D02*
Y620200D01*
Y544800D02*
Y570300D01*
X1102800Y594700D02*
Y620200D01*
Y544800D02*
Y570300D01*
X1092800Y594700D02*
Y620200D01*
Y544800D02*
Y570300D01*
X1082800Y594700D02*
Y620200D01*
Y544800D02*
Y570300D01*
X1072800Y594700D02*
Y620200D01*
Y544800D02*
Y570300D01*
X1062800Y594700D02*
Y620200D01*
Y544800D02*
Y570300D01*
X1052800Y594700D02*
Y620200D01*
Y544800D02*
Y570300D01*
X1042800Y594700D02*
Y620200D01*
Y544800D02*
Y570300D01*
X1032800Y594700D02*
Y620200D01*
Y544800D02*
Y570300D01*
X1022800Y594700D02*
Y620200D01*
Y544800D02*
Y570300D01*
X1012800Y594700D02*
Y620200D01*
Y544800D02*
Y570300D01*
X1002800Y594700D02*
Y620200D01*
Y544800D02*
Y570300D01*
X992800Y594700D02*
Y620200D01*
Y544800D02*
Y570300D01*
X982800Y594700D02*
Y620200D01*
Y544800D02*
Y570300D01*
X972800Y594700D02*
Y620200D01*
Y544800D02*
Y570300D01*
X962800Y594700D02*
Y620200D01*
Y544800D02*
Y570300D01*
X952800Y594700D02*
Y620200D01*
Y544800D02*
Y570300D01*
X942800Y594700D02*
Y620200D01*
Y544800D02*
Y570300D01*
X932800Y594700D02*
Y620200D01*
Y544800D02*
Y570300D01*
X922800Y544800D02*
Y570300D01*
Y594700D02*
Y620200D01*
X132600Y594800D02*
Y610300D01*
X122600Y594800D02*
Y610300D01*
D22*
X306400Y445800D02*
Y488100D01*
X216600Y445800D02*
Y487600D01*
X341500Y590500D02*
X342800Y590400D01*
X302600Y487600D02*
X306400Y488100D01*
X314900Y563900D02*
X341500Y590500D01*
X314900Y496600D02*
Y563900D01*
X306400Y488100D02*
X314900Y496600D01*
X216600Y445800D02*
X306400D01*
X212600Y487600D02*
X216600D01*
D23*
X1078030Y149060D02*
X1079450Y149190D01*
X1076670Y148640D02*
X1078030Y149060D01*
X1075420Y147970D02*
X1076670Y148640D01*
X1074320Y147070D02*
X1075420Y147970D01*
X1073420Y145970D02*
X1074320Y147070D01*
X1072750Y144720D02*
X1073420Y145970D01*
X1072330Y143360D02*
X1072750Y144720D01*
X1072200Y141950D02*
X1072330Y143360D01*
X1072200Y141950D02*
X1072330Y140530D01*
X1072750Y139170D01*
X1073420Y137920D01*
X1074320Y136820D01*
X1075420Y135920D01*
X1076670Y135250D01*
X1078030Y134830D01*
X1079450Y134700D01*
X1080860Y134830D01*
X1082220Y135250D01*
X1083470Y135920D01*
X1084570Y136820D01*
X1085470Y137920D01*
X1086140Y139170D01*
X1086560Y140530D01*
X1086700Y141950D01*
X1086560Y143360D02*
X1086700Y141950D01*
X1086140Y144720D02*
X1086560Y143360D01*
X1085470Y145970D02*
X1086140Y144720D01*
X1084570Y147070D02*
X1085470Y145970D01*
X1083470Y147970D02*
X1084570Y147070D01*
X1082220Y148640D02*
X1083470Y147970D01*
X1080860Y149060D02*
X1082220Y148640D01*
X1079450Y149200D02*
X1080860Y149060D01*
X1079260Y140310D02*
Y143780D01*
X1079730D01*
Y140310D02*
Y143780D01*
X1079260Y140310D02*
X1079730D01*
X1078600Y139650D02*
Y144450D01*
X1080400D01*
Y139650D02*
Y144450D01*
X1078600Y139650D02*
X1080400D01*
X1078100Y139150D02*
Y144950D01*
Y139150D02*
X1080900D01*
Y144950D01*
X1078100D02*
X1080900D01*
X1076200Y138950D02*
X1083050D01*
X1076200D02*
X1083050D01*
X1076200Y145050D02*
X1083050D01*
X1076200D02*
X1083050D01*
D24*
X552500Y350500D02*
D03*
Y318500D02*
D03*
X1002200Y200500D02*
D03*
Y168500D02*
D03*
X908300Y200500D02*
D03*
Y168500D02*
D03*
X833300Y200500D02*
D03*
Y168500D02*
D03*
X758300Y200500D02*
D03*
Y168500D02*
D03*
X683300Y200500D02*
D03*
Y168500D02*
D03*
X608300Y200500D02*
D03*
Y168500D02*
D03*
X533300Y200500D02*
D03*
Y168500D02*
D03*
X458300Y200500D02*
D03*
Y168500D02*
D03*
X383300Y200500D02*
D03*
Y168500D02*
D03*
X308300Y200500D02*
D03*
Y168500D02*
D03*
X139800Y200500D02*
D03*
Y168500D02*
D03*
X1096200Y275500D02*
D03*
Y243500D02*
D03*
X1021200Y275500D02*
D03*
Y243500D02*
D03*
X946200Y275500D02*
D03*
Y243500D02*
D03*
X871200Y275500D02*
D03*
Y243500D02*
D03*
X796200Y275500D02*
D03*
Y243500D02*
D03*
X721200Y275500D02*
D03*
Y243500D02*
D03*
X646200Y275500D02*
D03*
Y243500D02*
D03*
X571200Y275500D02*
D03*
Y243500D02*
D03*
X496200Y275500D02*
D03*
Y243500D02*
D03*
X421200Y275500D02*
D03*
Y243500D02*
D03*
X346200Y275500D02*
D03*
Y243500D02*
D03*
X271200Y275500D02*
D03*
Y243500D02*
D03*
X196200Y275500D02*
D03*
Y243500D02*
D03*
X1021400Y350500D02*
D03*
Y318500D02*
D03*
X927500Y350500D02*
D03*
Y318500D02*
D03*
X852500Y350500D02*
D03*
Y318500D02*
D03*
X777500Y350500D02*
D03*
Y318500D02*
D03*
X702500Y350500D02*
D03*
Y318500D02*
D03*
X627500Y350500D02*
D03*
Y318500D02*
D03*
X477500Y350500D02*
D03*
Y318500D02*
D03*
X402500Y350500D02*
D03*
Y318500D02*
D03*
X327500Y350500D02*
D03*
Y318500D02*
D03*
X252500Y350500D02*
D03*
Y318500D02*
D03*
X177500Y350500D02*
D03*
Y318500D02*
D03*
X570800Y125500D02*
D03*
Y93500D02*
D03*
X1041100Y425500D02*
D03*
Y393500D02*
D03*
X966100Y425500D02*
D03*
Y393500D02*
D03*
X891100Y425500D02*
D03*
Y393500D02*
D03*
X816100Y425500D02*
D03*
Y393500D02*
D03*
X741100Y425500D02*
D03*
Y393500D02*
D03*
X666100Y425500D02*
D03*
Y393500D02*
D03*
X591100Y425500D02*
D03*
Y393500D02*
D03*
X516100Y425500D02*
D03*
Y393500D02*
D03*
X441100Y425500D02*
D03*
Y393500D02*
D03*
X366100Y425500D02*
D03*
Y393500D02*
D03*
X291100Y425500D02*
D03*
Y393500D02*
D03*
X216100Y425500D02*
D03*
Y393500D02*
D03*
X233700Y200500D02*
D03*
Y168500D02*
D03*
X121200Y275500D02*
D03*
Y243500D02*
D03*
X102500Y350500D02*
D03*
Y318500D02*
D03*
X141100Y425500D02*
D03*
Y393500D02*
D03*
X91700Y498500D02*
D03*
Y518500D02*
D03*
D25*
X1122800Y597500D02*
D03*
Y567500D02*
D03*
X1112800Y597500D02*
D03*
Y567500D02*
D03*
X1102800Y597500D02*
D03*
Y567500D02*
D03*
X1092800Y597500D02*
D03*
Y567500D02*
D03*
X1082800Y597500D02*
D03*
Y567500D02*
D03*
X1072800Y597500D02*
D03*
Y567500D02*
D03*
X1062800Y597500D02*
D03*
Y567500D02*
D03*
X1052800Y597500D02*
D03*
Y567500D02*
D03*
X1042800Y597500D02*
D03*
Y567500D02*
D03*
X1032800Y597500D02*
D03*
Y567500D02*
D03*
X1022800Y597500D02*
D03*
Y567500D02*
D03*
X1012800Y597500D02*
D03*
Y567500D02*
D03*
X1002800Y597500D02*
D03*
Y567500D02*
D03*
X992800Y597500D02*
D03*
Y567500D02*
D03*
X982800Y597500D02*
D03*
Y567500D02*
D03*
X972800Y597500D02*
D03*
Y567500D02*
D03*
X962800Y597500D02*
D03*
Y567500D02*
D03*
X952800Y597500D02*
D03*
Y567500D02*
D03*
X942800Y597500D02*
D03*
Y567500D02*
D03*
X932800Y597500D02*
D03*
Y567500D02*
D03*
X922800Y597500D02*
D03*
Y567500D02*
D03*
X512600Y597500D02*
D03*
Y567600D02*
D03*
X522600D02*
D03*
X532600D02*
D03*
X542600D02*
D03*
X552600D02*
D03*
X562600D02*
D03*
X572600D02*
D03*
X552600Y597600D02*
D03*
X542600D02*
D03*
X532600D02*
D03*
X522600D02*
D03*
X562600D02*
D03*
X572600D02*
D03*
X82600D02*
D03*
X92600Y597300D02*
D03*
X152600Y567600D02*
D03*
Y597600D02*
D03*
X112600D02*
D03*
X122600D02*
D03*
X132600D02*
D03*
X142600D02*
D03*
Y567600D02*
D03*
X132600D02*
D03*
X122600D02*
D03*
X112600D02*
D03*
X102600D02*
D03*
X92600D02*
D03*
X82600D02*
D03*
X102600Y597500D02*
D03*
X832600Y567600D02*
D03*
X842600D02*
D03*
X852600D02*
D03*
Y597600D02*
D03*
X842600D02*
D03*
X832600D02*
D03*
X782600Y567600D02*
D03*
X792600D02*
D03*
X802600D02*
D03*
X812600D02*
D03*
X822600D02*
D03*
Y597600D02*
D03*
X812600D02*
D03*
X802600D02*
D03*
X792600D02*
D03*
X782600D02*
D03*
X712600Y567600D02*
D03*
X702600D02*
D03*
X692600D02*
D03*
X682600D02*
D03*
X672600D02*
D03*
X662600D02*
D03*
X652600D02*
D03*
X642600D02*
D03*
Y597600D02*
D03*
X652600D02*
D03*
X662600D02*
D03*
X672600D02*
D03*
X682600D02*
D03*
X692600D02*
D03*
X702600D02*
D03*
X712600D02*
D03*
X412600Y567600D02*
D03*
X422600D02*
D03*
X432600D02*
D03*
Y597600D02*
D03*
X422600D02*
D03*
X412600D02*
D03*
X362600Y567600D02*
D03*
X372600D02*
D03*
X382600D02*
D03*
X392600D02*
D03*
X402600D02*
D03*
Y597600D02*
D03*
X392600D02*
D03*
X382600D02*
D03*
X372600D02*
D03*
X362600D02*
D03*
X282600Y567600D02*
D03*
X292600D02*
D03*
Y597600D02*
D03*
X282600D02*
D03*
X252600Y567600D02*
D03*
X262600D02*
D03*
X272600D02*
D03*
Y597600D02*
D03*
X262600D02*
D03*
X252600D02*
D03*
X222600Y567600D02*
D03*
X232600D02*
D03*
X242600D02*
D03*
Y597600D02*
D03*
X232600D02*
D03*
X222600D02*
D03*
D26*
X941700Y461500D02*
D03*
X791900Y498600D02*
D03*
X802900Y506300D02*
D03*
X781700Y537900D02*
D03*
X443800Y499200D02*
D03*
X402300Y506700D02*
D03*
X347300Y537300D02*
D03*
X262200Y514800D02*
D03*
X232200Y522900D02*
D03*
X140700Y632000D02*
D03*
X180300Y623400D02*
D03*
X322400Y607700D02*
D03*
X342800Y590400D02*
D03*
X522700Y621800D02*
D03*
X612300Y629900D02*
D03*
X626500Y621400D02*
D03*
X761300Y550400D02*
D03*
X770400Y575600D02*
D03*
X760600Y590600D02*
D03*
X771300Y610200D02*
D03*
D27*
X650100Y70100D02*
D03*
X497600D02*
D03*
X910100Y107600D02*
D03*
X232600D02*
D03*
X137600Y475100D02*
D03*
X570100D02*
D03*
X1002600D02*
D03*
D28*
X812600Y617600D02*
D03*
Y627600D02*
D03*
Y637600D02*
D03*
Y647600D02*
D03*
X852600D02*
D03*
Y637600D02*
D03*
Y627600D02*
D03*
Y617600D02*
D03*
X712600D02*
D03*
Y627600D02*
D03*
Y637600D02*
D03*
Y647600D02*
D03*
X672600D02*
D03*
Y637600D02*
D03*
Y627600D02*
D03*
Y617600D02*
D03*
X352600Y457600D02*
D03*
Y467600D02*
D03*
Y477600D02*
D03*
Y487600D02*
D03*
X302600Y457600D02*
D03*
Y467600D02*
D03*
Y477600D02*
D03*
Y487600D02*
D03*
X262600Y457600D02*
D03*
Y467600D02*
D03*
Y477600D02*
D03*
Y487600D02*
D03*
X212600Y457600D02*
D03*
Y467600D02*
D03*
Y477600D02*
D03*
Y487600D02*
D03*
D29*
X472600Y567600D02*
D03*
Y597600D02*
D03*
X61700Y598500D02*
D03*
Y568500D02*
D03*
X1142200Y567700D02*
D03*
Y598300D02*
D03*
D30*
X542600Y557600D02*
D03*
X552600D02*
D03*
X562600D02*
D03*
X1122900Y617500D02*
D03*
X1122800Y607500D02*
D03*
Y557500D02*
D03*
X1122700Y547500D02*
D03*
X1112900Y617500D02*
D03*
X1112800Y607500D02*
D03*
Y557500D02*
D03*
X1112700Y547500D02*
D03*
X1102900Y617500D02*
D03*
X1102800Y607500D02*
D03*
Y557500D02*
D03*
X1102700Y547500D02*
D03*
X1092900Y617500D02*
D03*
X1092800Y607500D02*
D03*
Y557500D02*
D03*
X1092700Y547500D02*
D03*
X1082900Y617500D02*
D03*
X1082800Y607500D02*
D03*
Y557500D02*
D03*
X1082700Y547500D02*
D03*
X1072900Y617500D02*
D03*
X1072800Y607500D02*
D03*
Y557500D02*
D03*
X1072700Y547500D02*
D03*
X1062900Y617500D02*
D03*
X1062800Y607500D02*
D03*
Y557500D02*
D03*
X1062700Y547500D02*
D03*
X1052900Y617500D02*
D03*
X1052800Y607500D02*
D03*
Y557500D02*
D03*
X1052700Y547500D02*
D03*
X1042900Y617500D02*
D03*
X1042800Y607500D02*
D03*
Y557500D02*
D03*
X1042700Y547500D02*
D03*
X1032900Y617500D02*
D03*
X1032800Y607500D02*
D03*
Y557500D02*
D03*
X1032700Y547500D02*
D03*
X1022900Y617500D02*
D03*
X1022800Y607500D02*
D03*
Y557500D02*
D03*
X1022700Y547500D02*
D03*
X1012900Y617500D02*
D03*
X1012800Y607500D02*
D03*
Y557500D02*
D03*
X1012700Y547500D02*
D03*
X1002900Y617500D02*
D03*
X1002800Y607500D02*
D03*
Y557500D02*
D03*
X1002700Y547500D02*
D03*
X992900Y617500D02*
D03*
X992800Y607500D02*
D03*
Y557500D02*
D03*
X992700Y547500D02*
D03*
X982900Y617500D02*
D03*
X982800Y607500D02*
D03*
Y557500D02*
D03*
X982700Y547500D02*
D03*
X972900Y617500D02*
D03*
X972800Y607500D02*
D03*
Y557500D02*
D03*
X972700Y547500D02*
D03*
X962900Y617500D02*
D03*
X962800Y607500D02*
D03*
Y557500D02*
D03*
X962700Y547500D02*
D03*
X952900Y617500D02*
D03*
X952800Y607500D02*
D03*
Y557500D02*
D03*
X952700Y547500D02*
D03*
X942900Y617500D02*
D03*
X942800Y607500D02*
D03*
Y557500D02*
D03*
X942700Y547500D02*
D03*
X932900Y617500D02*
D03*
X932800Y607500D02*
D03*
Y557500D02*
D03*
X932700Y547500D02*
D03*
X922700D02*
D03*
X922800Y557500D02*
D03*
Y607500D02*
D03*
X922900Y617500D02*
D03*
X132600Y607600D02*
D03*
X122600D02*
D03*
M02*
